<svg width="97" height="83" viewBox="0 0 97 83" fill="none" xmlns="http://www.w3.org/2000/svg">
<path d="M18.7229 50.3968C18.2559 51.4965 17.6554 52.5154 17.3497 53.6745C16.1543 58.246 16.1321 63.831 15.1369 68.5265C14.9201 69.5562 14.7255 70.8878 13.419 70.063C9.87753 67.8257 6.44168 62.6774 2.47767 61.0278C1.99398 60.8229 1.46582 60.6989 0.943215 60.6719C1.09332 61.4428 1.42134 62.1922 1.75491 62.9038C3.30049 66.2138 6.25821 68.478 8.73224 71.1897C9.9498 72.532 13.2967 76.0631 13.8249 77.551C14.5309 79.5402 13.3912 82.4945 16.3878 82.9797C18.1725 83.2654 18.2448 80.4729 18.6284 79.4163C19.3734 77.3569 21.4415 75.9661 23.115 74.5914C26.0894 72.1547 29.6475 69.8797 32.4385 67.292C33.6282 66.1923 34.4789 65.1195 35.0737 63.5938C34.8235 62.9631 31.3154 64.3647 30.8095 64.6181C27.7128 66.1437 25.0331 69.001 21.9808 70.4242C21.4082 70.6937 20.6298 71.1034 20.0238 70.7315C19.29 70.16 19.5902 62.5911 19.6347 61.2811C19.7292 58.5641 20.7299 52.9305 19.201 50.7634C19.0676 50.5693 18.9786 50.4615 18.7229 50.4076V50.3968Z" fill="#FEAD77"/>
<path d="M44.9754 80.3166C45.1811 80.8772 46.104 81.26 46.6655 81.3948C48.1221 81.7344 50.118 79.1575 51.5191 78.6454C52.681 78.2195 55.7499 78.0847 57.1287 77.9769C61.1428 77.6696 66.3466 78.2087 70.0048 77.0119C70.8777 76.7262 71.7116 76.2895 72.5789 75.9823C72.8291 75.7451 72.0841 75.3731 71.9062 75.2814C68.1479 73.427 61.1483 74.683 57.012 73.842C55.4275 73.5186 56.3615 72.4027 56.9341 71.5725C59.6806 67.5832 63.639 63.7448 66.2243 59.7393C66.9025 58.6827 67.4307 57.5452 67.7309 56.343C67.5141 56.2083 67.3695 56.2244 67.136 56.2676C64.473 56.7258 59.953 62.5534 57.8848 64.6289C57.0398 65.4753 52.7922 69.8204 51.8749 69.7018C51.2133 69.6155 50.9131 68.6668 50.7296 68.1384C49.3397 64.1923 50.0847 59.5291 47.7997 55.6907C47.594 55.3457 46.8879 54.0627 46.4765 54.5479C45.9205 55.9172 45.6981 57.0115 45.7037 58.4671C45.7315 63.5076 47.3883 69.3999 47.127 74.3057C47.0714 75.3731 46.849 76.0847 46.3375 77.0443C45.8594 77.9446 44.5584 79.1737 44.9809 80.322L44.9754 80.3166Z" fill="#FEAD77"/>
<path d="M37.0696 11.5281C37.0418 12.7195 36.8528 13.8732 37.0029 15.0646C37.5811 19.7493 39.6271 24.9677 40.4332 29.6956C40.6111 30.7361 40.9225 32.0407 39.3936 31.728C35.2572 30.8708 30.1479 27.2643 25.8392 27.1026C25.311 27.081 24.7718 27.1511 24.277 27.3074C24.7051 27.9759 25.2888 28.5581 25.8614 29.108C28.5301 31.6633 32.1271 32.7415 35.4407 34.4181C37.0752 35.2429 41.5007 37.3777 42.5459 38.5853C43.9413 40.1972 43.9747 43.3509 46.9491 42.7579C48.7226 42.4075 47.7552 39.7713 47.7219 38.65C47.6552 36.472 49.0673 34.4504 50.1236 32.5851C51.9972 29.2751 54.4768 25.9111 56.128 22.531C56.8341 21.0863 57.2233 19.7924 57.2177 18.159C56.7507 17.6576 53.9931 20.186 53.6151 20.5957C51.2912 23.0971 49.8457 26.6982 47.5273 29.0864C47.0936 29.5339 46.521 30.1916 45.8149 30.0568C44.9198 29.7819 42.3958 22.6119 41.951 21.3666C41.0337 18.7951 39.8828 13.1939 37.6534 11.7006C37.4588 11.5658 37.3309 11.4958 37.0752 11.5335L37.0696 11.5281Z" fill="#FEAD77"/>
<path d="M72.6512 30.3156C73.0515 30.7684 74.0522 30.8061 74.6304 30.7307C76.1149 30.542 77.0266 27.4422 78.1441 26.4772C79.0726 25.674 81.8858 24.4826 83.1311 23.9057C86.7615 22.2238 91.8208 20.9191 94.7896 18.5202C95.5013 17.9487 96.1128 17.2479 96.8133 16.6657C96.9634 16.3584 96.1295 16.2667 95.9238 16.2452C91.7263 15.8193 85.6607 19.4312 81.491 20.0836C79.8954 20.3315 80.3513 18.9676 80.5792 17.9919C81.6634 13.3125 83.9428 8.34745 84.8713 3.71663C85.1159 2.49827 85.1882 1.24758 85.0214 0.0184436C84.7656 -0.0354659 84.6433 0.0346164 84.4376 0.153217C82.1193 1.50635 80.0566 8.52534 78.8947 11.1723C78.4221 12.2559 76.0648 17.7924 75.1642 18.0026C74.5137 18.1536 73.8855 17.3665 73.513 16.9406C70.7554 13.7384 69.7213 9.12913 66.1743 6.34201C65.8574 6.08864 64.7176 5.13983 64.5175 5.73283C64.5064 7.20456 64.701 8.30432 65.2458 9.66284C67.1361 14.3584 70.8666 19.2803 72.4344 23.9542C72.7735 24.9677 72.8347 25.7117 72.7124 26.7845C72.5956 27.7926 71.8395 29.3937 72.6568 30.3156H72.6512Z" fill="#FEAD77"/>
</svg>
