<svg width="49" height="534" viewBox="0 0 49 534" fill="none" xmlns="http://www.w3.org/2000/svg">
<path d="M145.879 51.4403C146.639 52.2248 146.069 55.4099 146.167 56.5129C145.966 61.1255 144.642 65.5375 143.767 70.038C142.921 74.5504 142.133 79.0863 140.476 83.3744C137.46 92.0038 133.081 100.085 127.165 106.98C124.76 109.959 122.36 112.867 119.368 115.226C116.473 117.68 113.308 119.744 110.045 121.638C106.155 124.658 101.92 127.194 97.5694 129.435C92.0622 131.883 86.1523 133.694 80.2711 134.832C74.1827 135.552 68.0425 135.464 61.9311 135.475C57.8223 135.033 53.6675 134.65 49.6508 133.641C49.2192 133.541 48.7933 133.429 48.3675 133.305C39.7183 132.219 31.8978 127.041 25.0843 121.72C18.5931 115.539 12.2458 108.59 9.02898 99.9903C7.09543 94.2629 5.31726 88.453 3.8153 82.5899C2.30184 75.1166 2.26156 67.4309 2.2443 59.8279C2.12345 57.1854 2.42844 53.5755 5.92149 54.2184C6.81346 54.242 7.70542 54.2833 8.59163 54.3364C9.56416 54.1831 10.5367 54.0533 11.5207 54.0474C17.9716 53.4811 24.4168 52.8028 30.8907 52.5315C41.1512 51.57 51.452 51.4462 61.747 51.2692C69.1704 51.1925 76.6169 50.9035 84.0403 51.0923C93.3225 50.6853 102.616 50.3137 111.904 50.4375C119.408 50.7148 126.912 50.9802 134.416 50.4965C138.231 50.3432 142.185 50.4965 145.879 51.4344V51.4403Z" fill="#FEAD77"/>
<path d="M145.879 144.1C146.639 144.879 146.069 148.043 146.167 149.139C145.966 153.721 144.642 158.104 143.767 162.574C142.921 167.057 142.133 171.563 140.476 175.822C137.46 184.395 133.081 192.422 127.165 199.272C124.76 202.231 122.36 205.119 119.368 207.463C116.473 209.901 113.308 211.951 110.045 213.832C106.155 216.832 101.92 219.352 97.5694 221.578C92.0622 224.01 86.1523 225.809 80.2711 226.94C74.1827 227.654 68.0425 227.567 61.9311 227.578C57.8223 227.139 53.6675 226.758 49.6508 225.756C49.2192 225.656 48.7933 225.545 48.3675 225.422C39.7183 224.344 31.8978 219.199 25.0843 213.914C18.5931 207.774 12.2458 200.871 9.02898 192.328C7.09543 186.639 5.31726 180.867 3.8153 175.043C2.30184 167.619 2.26156 159.985 2.2443 152.432C2.12345 149.807 2.42844 146.221 5.92149 146.859C6.81346 146.883 7.70542 146.924 8.59163 146.977C9.56416 146.824 10.5367 146.695 11.5207 146.69C17.9716 146.127 24.4168 145.453 30.8907 145.184C41.1512 144.229 51.452 144.106 61.747 143.93C69.1704 143.854 76.6169 143.567 84.0403 143.754C93.3225 143.35 102.616 142.981 111.904 143.104C119.408 143.379 126.912 143.643 134.416 143.162C138.231 143.01 142.185 143.162 145.879 144.094V144.1Z" fill="#FEAD77"/>
<path d="M145.879 243.1C146.639 243.879 146.069 247.043 146.167 248.139C145.966 252.721 144.642 257.104 143.767 261.574C142.921 266.057 142.133 270.563 140.476 274.822C137.46 283.395 133.081 291.422 127.165 298.272C124.76 301.231 122.36 304.119 119.368 306.463C116.473 308.901 113.308 310.951 110.045 312.832C106.155 315.832 101.92 318.352 97.5694 320.578C92.0622 323.01 86.1523 324.809 80.2711 325.94C74.1827 326.654 68.0425 326.567 61.9311 326.578C57.8223 326.139 53.6675 325.758 49.6508 324.756C49.2192 324.656 48.7933 324.545 48.3675 324.422C39.7183 323.344 31.8978 318.199 25.0843 312.914C18.5931 306.774 12.2458 299.871 9.02898 291.328C7.09543 285.639 5.31726 279.867 3.8153 274.043C2.30184 266.619 2.26156 258.985 2.2443 251.432C2.12345 248.807 2.42844 245.221 5.92149 245.859C6.81346 245.883 7.70542 245.924 8.59163 245.977C9.56416 245.824 10.5367 245.695 11.5207 245.69C17.9716 245.127 24.4168 244.453 30.8907 244.184C41.1512 243.229 51.452 243.106 61.747 242.93C69.1704 242.854 76.6169 242.567 84.0403 242.754C93.3225 242.35 102.616 241.981 111.904 242.104C119.408 242.379 126.912 242.643 134.416 242.162C138.231 242.01 142.185 242.162 145.879 243.094V243.1Z" fill="#FEAD77"/>
<path d="M145.879 342.1C146.639 342.879 146.069 346.043 146.167 347.139C145.966 351.721 144.642 356.104 143.767 360.574C142.921 365.057 142.133 369.563 140.476 373.822C137.46 382.395 133.081 390.422 127.165 397.272C124.76 400.231 122.36 403.119 119.368 405.463C116.473 407.901 113.308 409.951 110.045 411.832C106.155 414.832 101.92 417.352 97.5694 419.578C92.0622 422.01 86.1523 423.809 80.2711 424.94C74.1827 425.654 68.0425 425.567 61.9311 425.578C57.8223 425.139 53.6675 424.758 49.6508 423.756C49.2192 423.656 48.7933 423.545 48.3675 423.422C39.7183 422.344 31.8978 417.199 25.0843 411.914C18.5931 405.774 12.2458 398.871 9.02898 390.328C7.09543 384.639 5.31726 378.867 3.8153 373.043C2.30184 365.619 2.26156 357.985 2.2443 350.432C2.12345 347.807 2.42844 344.221 5.92149 344.859C6.81346 344.883 7.70542 344.924 8.59163 344.977C9.56416 344.824 10.5367 344.695 11.5207 344.69C17.9716 344.127 24.4168 343.453 30.8907 343.184C41.1512 342.229 51.452 342.106 61.747 341.93C69.1704 341.854 76.6169 341.567 84.0403 341.754C93.3225 341.35 102.616 340.981 111.904 341.104C119.408 341.379 126.912 341.643 134.416 341.162C138.231 341.01 142.185 341.162 145.879 342.094V342.1Z" fill="#FEAD77"/>
<path d="M145.879 434.44C146.639 435.225 146.069 438.41 146.167 439.513C145.966 444.126 144.642 448.538 143.767 453.038C142.921 457.55 142.133 462.086 140.476 466.374C137.46 475.004 133.081 483.085 127.165 489.98C124.76 492.959 122.36 495.867 119.368 498.226C116.473 500.68 113.308 502.744 110.045 504.638C106.155 507.658 101.92 510.194 97.5694 512.435C92.0622 514.883 86.1523 516.694 80.2711 517.832C74.1827 518.552 68.0425 518.464 61.9311 518.475C57.8223 518.033 53.6675 517.65 49.6508 516.641C49.2192 516.541 48.7933 516.429 48.3675 516.305C39.7183 515.219 31.8978 510.041 25.0843 504.72C18.5931 498.539 12.2458 491.59 9.02898 482.99C7.09543 477.263 5.31726 471.453 3.8153 465.59C2.30184 458.117 2.26156 450.431 2.2443 442.828C2.12345 440.185 2.42844 436.576 5.92149 437.218C6.81346 437.242 7.70542 437.283 8.59163 437.336C9.56416 437.183 10.5367 437.053 11.5207 437.047C17.9716 436.481 24.4168 435.803 30.8907 435.531C41.1512 434.57 51.452 434.446 61.747 434.269C69.1704 434.193 76.6169 433.904 84.0403 434.092C93.3225 433.685 102.616 433.314 111.904 433.438C119.408 433.715 126.912 433.98 134.416 433.497C138.231 433.343 142.185 433.497 145.879 434.434V434.44Z" fill="#FEAD77"/>
</svg>
