<svg width="254" height="138" viewBox="0 0 254 138" fill="none" xmlns="http://www.w3.org/2000/svg">
<path d="M161.26 20.2102C144.19 20.4002 130.73 28.5402 119.29 40.1102C109.22 50.3102 98.0499 59.1002 86.7799 67.8102C69.4299 81.2302 49.5799 82.3102 31.1799 70.3902C23.3599 65.3202 16.2499 59.1002 9.12989 53.0402C-3.04011 42.6602 -2.76011 42.7102 8.67989 30.8702C12.2199 27.2102 14.5799 26.3702 18.5399 30.0102C23.0199 34.1402 27.9399 37.8002 32.8399 41.4502C53.2899 56.6902 72.0899 56.0102 91.4999 39.1902C99.1899 32.5302 106.35 25.2402 114.1 18.6602C140.38 -3.6298 169.16 -5.3798 199.32 9.5502C216.49 18.0502 232.43 28.6902 247.2 40.9402C251.15 44.2202 258.39 47.3602 250.27 53.7002C245.13 57.7102 242.81 67.9302 232.53 58.1902C217.29 43.7602 202.02 28.6202 180.44 23.1502C174.08 21.5402 167.77 20.2702 161.27 20.2002L161.26 20.2102Z" fill="#512A45"/>
<path d="M161.26 79.3699C144.19 79.5599 130.73 87.6999 119.29 99.2699C109.22 109.47 98.0499 118.26 86.7799 126.97C69.4299 140.39 49.5799 141.47 31.1799 129.55C23.3599 124.48 16.2499 118.26 9.12989 112.2C-3.04011 101.82 -2.76011 101.87 8.67989 90.0299C12.2199 86.3699 14.5799 85.5299 18.5399 89.1699C23.0199 93.2999 27.9399 96.9599 32.8399 100.61C53.2899 115.85 72.0899 115.17 91.4999 98.3499C99.1899 91.6899 106.35 84.3999 114.1 77.8199C140.38 55.5299 169.16 53.7799 199.32 68.7099C216.49 77.2099 232.43 87.8499 247.2 100.1C251.15 103.38 258.39 106.52 250.27 112.86C245.13 116.87 242.81 127.09 232.53 117.35C217.29 102.92 202.02 87.7799 180.44 82.3099C174.08 80.6999 167.77 79.4299 161.27 79.3599L161.26 79.3699Z" fill="#512A45"/>
</svg>
