<svg width="138" height="256" viewBox="0 0 138 256" fill="none" xmlns="http://www.w3.org/2000/svg">
<path d="M74.11 183.62C74.36 191.56 75.49 199.46 75.23 207.42C75.12 213.53 74.22 219.58 73.03 225.56C72.74 226.78 72.69 228.1 72.23 229.26C71.98 229.58 71.56 229.67 71.18 229.73C69.19 230.19 67.2 230.64 65.2 231.02C61.2 231.9 57.12 231.91 53.06 231.63C52.65 231.61 52.23 231.6 51.82 231.59C46.77 232.35 41.66 232.76 36.55 233.01C35.61 233.07 34.66 233.12 33.72 233.16C30.47 233.48 27.21 233.67 23.94 233.78C23.34 233.84 22.74 233.91 22.14 233.99C15.04 235.19 7.89 235.88 0.669998 235.87C-1.71 235.99 -4.09 236.12 -6.47 236.24C-8.29 236.9 -12.34 236.84 -13.18 236.9C-14.59 236.9 -16 236.87 -17.4 236.8C-22.97 237.05 -28.54 237.2 -34.12 237.14C-34.28 237.14 -34.44 237.14 -34.6 237.13C-34.85 237.17 -35.11 237.22 -35.37 237.25C-40.59 237.99 -45.84 238.12 -51.07 238.4C-51.16 238.44 -51.26 238.46 -51.35 238.46C-51.42 238.46 -51.49 238.45 -51.56 238.43C-51.66 238.43 -51.76 238.44 -51.87 238.45C-51.98 238.45 -52.08 238.46 -52.18 238.46C-52.92 238.46 -53.34 238.19 -53.52 237.85C-54.24 236.97 -54.25 234.61 -54.66 233.76C-55.51 230.38 -56.21 226.96 -56.85 223.53C-58.92 212.53 -61.33 201.52 -61.35 190.27C-61.46 184.7 -60.35 179.23 -59.43 173.76C-57.91 163.17 -55.27 152.79 -51.08 142.93C-49 137.28 -45.56 132.32 -42.18 127.4C-37.86 121.04 -33.06 114.93 -27.45 109.66C-30.99 107.05 -33.63 103.53 -36.28 100.08C-39.95 95.0198 -44.41 90.5398 -47.68 85.1998C-50.41 80.7298 -51.97 75.6898 -53.54 70.7298C-56.38 62.0698 -58.44 53.1398 -59.12 44.0398C-59.88 36.0698 -59.72 27.9598 -57.51 20.2598C-57.46 18.1998 -54.72 18.4498 -53.3 17.7798C-49.78 16.5698 -46.11 16.0798 -42.4 16.0298C-39.28 15.4298 -36.1 15.2498 -32.94 14.9798C-19.84 13.3098 -6.61 13.0498 6.56 13.0398C19.17 11.4598 31.87 11.9998 44.53 12.2198C50.79 12.2298 57 11.1498 63.26 11.0698C63.84 11.1098 64.45 11.0998 65.05 11.0898C66.39 11.0698 67.74 11.0398 68.94 11.5598C69.62 12.3498 69.38 13.5998 69.61 14.5798C70.25 19.6998 70.93 24.8698 70.43 30.0398C68.34 45.1598 62.49 60.0098 53.71 72.4998C50.66 76.6798 46.89 80.2398 43.28 83.9198C40.14 87.1698 37.2 90.6398 34.24 93.9898C42.16 99.5298 49.33 104.79 53.95 113.58C57.98 120.77 62.8 127.61 65.78 135.34C71.12 150.85 73.68 167.27 74.08 183.64L74.11 183.62Z" fill="#F3F0E1"/>
</svg>
