<svg width="202" height="342" viewBox="0 0 202 342" fill="none" xmlns="http://www.w3.org/2000/svg">
<g clip-path="url(#clip0_36_120)">
<path d="M44.5091 188.909C42.7335 186.849 41.3414 185.192 39.929 183.596C26.9355 168.99 28.9531 152.222 45.3363 141.273C51.0664 137.455 57.2403 134.263 63.3336 131.051C66.1785 129.535 66.8846 128.444 64.6854 125.515C54.8192 112.364 54.5972 102.222 63.1722 87.6364C71.6866 73.1313 85.1241 64.4849 99.53 57.2324C104.715 54.6263 107.903 52.1819 109.376 45.8788C113.129 29.8788 124.125 18.7071 138.026 11.0101C161.27 -1.89896 186.329 -1.87876 211.589 3.07074C215.826 3.89902 222.666 6.02023 222.303 10.6061C221.899 15.6768 214.656 14.8687 210.56 15.2526C198.495 16.3637 186.167 15.293 174.203 16.9293C157.275 19.2526 141.517 25.0303 130.279 39.1515C128.422 41.4748 125.416 44.1819 127.071 47.0303C128.604 49.6768 132.195 47.4142 134.697 47.1111C157.033 44.4849 178.762 47.6364 200.291 53.3738C204.911 54.6061 209.108 56.7879 212.76 59.7374C221.113 66.4647 220.527 77.9798 211.69 83.7172C203.277 89.192 193.511 89.8788 183.968 91.2526C167.363 93.6364 150.879 91.9596 134.556 88.9495C125.275 87.2526 117.911 81.8586 112.423 74.0606C111.071 72.1414 110.203 69.0505 106.834 70.9495C92.6095 78.9495 77.679 86.3233 73.1998 104.162C69.9514 117.051 77.457 124.202 90.5515 121.495C132.175 112.889 174.001 107.495 216.25 116.909C229.466 119.859 242.621 123.293 250.489 136.303C256.784 146.707 254.807 153.434 243.488 158.404C231.564 163.636 218.913 164.525 206.202 164.95C164.357 166.343 124.488 157.515 86.0723 141.354C84.5793 140.727 82.6625 139.576 81.4318 140.02C67.8935 144.748 54.0727 149.192 45.8407 162.424C43.8634 165.616 43.6415 168.606 46.6074 171.354C53.9919 178.202 60.3475 184.222 72.8367 182.828C113.512 178.263 154.41 177.232 194.964 185.253C204.75 187.192 213.829 191.111 222.545 196.162C228.558 199.657 231.846 204.707 231.564 210.869C231.281 217.293 225.471 220.364 219.882 222.343C203.963 227.98 187.297 229.333 170.813 227.535C134.011 223.495 97.2904 218.445 63.5555 201.455C61.8204 200.586 60.065 199.657 58.0474 200.222C41.7247 204.727 26.6328 211.091 18.0175 227.071C15.9999 230.828 14.6077 234.465 18.2596 238.444C21.73 242.222 24.9582 241.697 29.3365 240.242C65.7548 228.141 102.718 224.889 140.125 235.212C150.475 238.061 160.442 242.242 169.199 248.869C174.646 252.97 178.359 258.081 177.572 264.99C176.805 271.717 171.075 274.061 165.567 276.222C149.991 282.364 133.709 282.424 117.406 281.495C86.2943 279.717 56.1508 273.475 27.3592 261.293C24.0503 259.899 21.8712 260.546 19.329 263.01C8.91799 273.071 10.4514 286.303 23.0818 295.414C36.2771 304.929 51.2278 310.647 66.6425 314.99C88.9777 321.253 111.555 326.404 134.818 328.222C157.9 330.04 180.639 328 203.115 323.091C209.309 321.737 212.477 323.96 213.768 328.849C215.241 334.465 209.673 334.647 206.344 335.596C180.699 342.869 154.571 342.99 128.281 340.606C102.778 338.283 78.143 331.313 53.5884 324.828C35.9745 320.182 18.643 313.131 7.24336 296.889C-2.15882 283.495 -2.52199 267.838 7.06177 254.525C8.53464 252.485 11.0769 251.152 8.77676 247.515C0.242166 233.98 0.867633 225.152 10.5725 212.424C17.4324 203.414 26.31 197.01 36.5999 192.465C39.0816 191.374 41.5633 190.242 44.5494 188.909H44.5091ZM103.545 133.818C120.614 140.586 136.11 143.374 151.403 146.869C175.877 152.465 200.634 151.939 225.43 149.434C231.08 148.869 236.568 145.212 237.496 141.293C238.424 137.414 231.584 135.939 227.529 134.606C187.136 121.374 146.622 126.242 103.545 133.818ZM40.494 252.768C55.485 259.152 70.7383 263.939 86.5566 265.838C108.186 268.444 129.996 273.293 151.625 265.273C155.156 263.96 160.382 264.121 160.745 259.535C161.027 255.879 156.246 255.293 153.381 254.02C137.058 246.687 119.807 243.273 102.032 242.828C81.0081 242.303 60.3071 244.283 40.5141 252.768H40.494ZM217.723 207.131C175.01 188.182 131.308 194.384 88.1101 194.97C124.226 209.818 201.38 220.808 217.723 207.131ZM122.935 65.7576C130.864 73.9394 140.246 74.9899 149.466 76.3839C165.204 78.7475 180.82 77.8586 196.356 74.6263C198.535 74.1818 201.239 73.899 201.663 71.4142C202.248 68.0202 198.636 68.0606 196.719 66.9697C194.863 65.9192 192.563 65.4344 190.404 65.1313C175.09 63.0505 159.817 60.6869 144.281 61.7374C137.421 62.2021 130.581 62.5455 122.955 65.7576H122.935Z" fill="#FFB27A"/>
</g>
<defs>
<clipPath id="clip0_36_120">
<rect width="254" height="342" fill="white"/>
</clipPath>
</defs>
</svg>
