<svg width="30" height="30" viewBox="0 0 30 30" fill="none" xmlns="http://www.w3.org/2000/svg">
<path d="M24 29.6248H6C2.373 29.6248 0.375 27.6268 0.375 23.9998V11.5978C0.375 9.96429 1.18653 8.4478 2.54553 7.5418L11.8799 1.31981C13.7759 0.0568086 16.2241 0.0568086 18.1201 1.31981L27.4545 7.5418C28.8135 8.4478 29.625 9.96429 29.625 11.5978V23.9998C29.625 27.6268 27.627 29.6248 24 29.6248ZM15 2.62329C14.3475 2.62329 13.6964 2.81231 13.1279 3.19181L3.79358 9.4138C3.06158 9.9013 2.625 10.7188 2.625 11.5978V23.9998C2.625 26.3653 3.6345 27.3748 6 27.3748H24C26.3655 27.3748 27.375 26.3653 27.375 23.9998V11.5978C27.375 10.7188 26.9384 9.9013 26.2064 9.4138L16.8721 3.19181C16.3036 2.81231 15.6525 2.62329 15 2.62329ZM16.2854 19.4098L23.1614 14.4088C23.6639 14.0428 23.7749 13.3393 23.4089 12.8368C23.0444 12.3358 22.3442 12.2218 21.8372 12.5893L14.9626 17.5888C14.8636 17.6608 14.7346 17.6608 14.6371 17.5903L7.76111 12.5893C7.25561 12.2233 6.55196 12.3358 6.18896 12.8368C5.82296 13.3393 5.93402 14.0428 6.43652 14.4088L13.3125 19.4098C13.7565 19.7323 14.277 19.8943 14.7975 19.8943C15.3195 19.8943 15.8414 19.7338 16.2854 19.4098Z" fill="#F1F0E2"/>
</svg>
