<?xml version="1.0" encoding="UTF-8"?>
<svg id="Layer_1" data-name="Layer 1" xmlns="http://www.w3.org/2000/svg" viewBox="0 0 1090.55 289.47">
  <defs>
    <style>
      .cls-1 {
        fill: #fff;
      }
    </style>
  </defs>
  <path class="cls-1" d="M0,118.3v-37.39h17.43v-15.73c0-18.11,5.64-32.92,16.92-44.47C45.64,9.15,62.69,3.39,85.52,3.39c4.98,0,9.97.19,14.95.59,4.98.4,9.83.73,14.56.99v41.71c-6.56-.79-13.38-1.19-20.46-1.19-7.62,0-13.06,1.78-16.34,5.33-3.28,3.54-4.92,9.5-4.92,17.89v12.2h38.56v37.39h-38.56v166.06H17.43V118.3H0Z"/>
  <path class="cls-1" d="M116.21,110.82c5.76-8.66,13.12-15.61,22.03-20.86,8.92-5.24,18.96-8.98,30.11-11.22,11.15-2.22,22.36-3.34,33.64-3.34,10.23,0,20.59.72,31.09,2.16,10.49,1.46,20.07,4.28,28.72,8.47,8.66,4.2,15.74,10.03,21.25,17.52,5.52,7.47,8.26,17.37,8.26,29.71v105.86c0,9.18.53,17.96,1.58,26.35,1.05,8.41,2.89,14.71,5.52,18.9h-56.68c-1.04-3.15-1.9-6.36-2.55-9.64-.66-3.27-1.12-6.62-1.38-10.04-8.92,9.19-19.42,15.61-31.49,19.29-12.07,3.67-24.39,5.51-36.98,5.51-9.71,0-18.76-1.18-27.15-3.54-8.4-2.36-15.74-6.03-22.04-11.02-6.29-4.97-11.21-11.27-14.76-18.89-3.55-7.6-5.31-16.65-5.31-27.15,0-11.53,2.04-21.05,6.1-28.52,4.07-7.48,9.31-13.44,15.74-17.92,6.42-4.45,13.77-7.79,22.04-10.03,8.25-2.22,16.59-4,24.98-5.3,8.39-1.31,16.66-2.37,24.79-3.15,8.13-.79,15.34-1.98,21.64-3.55,6.29-1.56,11.28-3.86,14.96-6.88,3.66-3.01,5.37-7.41,5.12-13.19,0-6.03-.99-10.82-2.96-14.36-1.96-3.54-4.58-6.3-7.86-8.26-3.29-1.97-7.09-3.28-11.42-3.94-4.33-.65-8.99-.99-13.98-.99-11.02,0-19.67,2.37-25.96,7.09-6.3,4.73-9.98,12.59-11.02,23.61h-55.88c.79-13.13,4.07-24,9.84-32.67ZM226.59,189.71c-3.54,1.19-7.35,2.18-11.42,2.96-4.06.78-8.32,1.45-12.78,1.96-4.47.54-8.93,1.18-13.39,1.98-4.19.79-8.33,1.83-12.38,3.15-4.08,1.31-7.61,3.08-10.63,5.3-3.01,2.23-5.44,5.06-7.29,8.46-1.83,3.41-2.74,7.74-2.74,12.98s.92,9.2,2.74,12.6c1.84,3.4,4.34,6.09,7.48,8.06,3.15,1.97,6.82,3.35,11.02,4.14,4.19.79,8.52,1.18,12.99,1.18,11.03,0,19.54-1.83,25.59-5.51,6.03-3.68,10.49-8.07,13.37-13.19,2.89-5.1,4.66-10.29,5.32-15.54.65-5.26.99-9.45.99-12.6v-20.85c-2.36,2.11-5.32,3.73-8.86,4.91Z"/>
  <path class="cls-1" d="M396.39,117.5c-8.92,0-16.4,2.05-22.43,6.11-6.05,4.07-10.96,9.31-14.76,15.73-3.81,6.43-6.49,13.51-8.06,21.26-1.59,7.74-2.37,15.41-2.37,23.02s.78,14.82,2.37,22.43c1.57,7.62,4.13,14.49,7.67,20.65,3.55,6.17,8.32,11.23,14.35,15.16,6.04,3.92,13.39,5.9,22.05,5.9,13.38,0,23.67-3.74,30.89-11.22,7.21-7.47,11.74-17.51,13.58-30.09h53.9c-3.67,27.01-14.16,47.6-31.47,61.77-17.32,14.17-39.49,21.25-66.5,21.25-15.23,0-29.19-2.56-41.91-7.68-12.74-5.11-23.55-12.25-32.47-21.44-8.92-9.17-15.87-20.12-20.86-32.85-4.98-12.73-7.47-26.7-7.47-41.9s2.29-30.37,6.88-43.88c4.58-13.51,11.34-25.18,20.26-35.02,8.92-9.85,19.81-17.51,32.67-23.03,12.85-5.51,27.56-8.26,44.07-8.26,12.06,0,23.68,1.58,34.83,4.72,11.15,3.15,21.11,7.94,29.9,14.37,8.79,6.42,15.95,14.43,21.45,24,5.52,9.57,8.66,20.92,9.45,34.04h-54.71c-3.68-23.35-17.44-35.03-41.31-35.03Z"/>
  <path class="cls-1" d="M613.2,80.91v37.39h-40.92v100.73c0,9.45,1.58,15.75,4.71,18.9,3.16,3.13,9.45,4.71,18.89,4.71,3.14,0,6.16-.14,9.05-.4,2.89-.26,5.63-.65,8.26-1.18v43.29c-4.72.78-9.97,1.31-15.74,1.57-5.77.25-11.41.39-16.91.39-8.65,0-16.86-.59-24.6-1.78-7.74-1.17-14.55-3.46-20.46-6.88-5.9-3.41-10.56-8.26-13.97-14.56-3.4-6.29-5.12-14.57-5.12-24.79v-120.02h-33.84v-37.39h33.84V19.92h55.88v60.99h40.92Z"/>
  <path class="cls-1" d="M601.79,138.56c4.99-13.24,12.06-24.52,21.26-33.84,9.19-9.31,20.19-16.53,33.05-21.64,12.85-5.12,27.3-7.68,43.29-7.68s30.5,2.56,43.49,7.68c13,5.11,24.06,12.33,33.26,21.64,9.16,9.32,16.27,20.6,21.24,33.84,4.99,13.25,7.48,28.01,7.48,44.26s-2.49,30.97-7.48,44.08c-4.97,13.12-12.08,24.33-21.24,33.65-9.2,9.31-20.26,16.47-33.26,21.44-12.99,4.99-27.48,7.48-43.49,7.48s-30.44-2.49-43.29-7.48c-12.85-4.97-23.86-12.13-33.05-21.44-9.2-9.31-16.27-20.53-21.26-33.65-4.98-13.12-7.47-27.8-7.47-44.08s2.49-31.01,7.47-44.26ZM652.55,206.64c1.58,7.74,4.26,14.69,8.06,20.85,3.81,6.17,8.87,11.08,15.16,14.76,6.3,3.68,14.17,5.51,23.61,5.51s17.37-1.83,23.82-5.51c6.41-3.67,11.53-8.58,15.34-14.76,3.8-6.16,6.49-13.11,8.07-20.85,1.57-7.74,2.35-15.68,2.35-23.82s-.78-16.13-2.35-23.99c-1.58-7.88-4.26-14.82-8.07-20.86-3.81-6.02-8.93-10.95-15.34-14.76-6.45-3.8-14.37-5.71-23.82-5.71s-17.32,1.91-23.61,5.71c-6.29,3.81-11.34,8.74-15.16,14.76-3.79,6.04-6.48,12.99-8.06,20.86-1.57,7.86-2.36,15.87-2.36,23.99s.79,16.08,2.36,23.82Z"/>
  <path class="cls-1" d="M858.76,80.91v37.78h.79c2.62-6.3,6.16-12.13,10.62-17.51,4.46-5.37,9.57-9.97,15.34-13.77,5.76-3.8,11.93-6.76,18.49-8.86,6.56-2.08,13.38-3.14,20.46-3.14,3.67,0,7.74.66,12.2,1.97v51.96c-2.63-.54-5.76-1-9.44-1.39-3.68-.39-7.22-.59-10.62-.59-10.24,0-18.91,1.71-25.98,5.12-7.07,3.42-12.78,8.07-17.11,13.98-4.32,5.9-7.41,12.78-9.25,20.66-1.84,7.86-2.75,16.39-2.75,25.58v91.69h-55.88V80.91h53.12Z"/>
  <path class="cls-1" d="M1034.67,284.36V105.7h-69.26v-51c9.71.27,19.09-.45,28.14-2.16,9.05-1.7,17.18-4.72,24.39-9.06,7.21-4.31,13.32-10.02,18.29-17.1,4.99-7.09,8.27-15.87,9.85-26.38h44.47v284.36h-55.89Z"/>
</svg>