<svg width="240" height="240" viewBox="0 0 240 240" fill="none" xmlns="http://www.w3.org/2000/svg">
<path d="M120.244 145.744C110.925 158.812 97.875 160.969 83.9718 160.556C80.9343 160.462 76.9968 160.359 75.0656 158.559C67.5656 151.537 60.7031 153.965 52.4812 157.444C18.0187 172.022 1.98745 148.106 0.149951 123.647C-0.459424 115.5 1.01245 107.203 1.52808 98.9717C2.84995 98.8405 4.1812 98.7186 5.50308 98.5873C6.29058 101.719 7.30308 104.803 7.8187 107.972C9.4312 117.75 9.29058 128.137 12.6843 137.231C20.0718 157.022 40.0124 159.994 55.5749 144.037C53.6718 141.787 51.7312 139.472 49.7718 137.165C39.1781 124.65 40.7156 107.953 54.4687 99.0186C58.2656 96.553 65.4937 96.4498 69.8156 98.3342C78.375 102.065 83.6343 109.847 81.7781 119.54C80.1843 127.847 76.4812 135.75 73.4156 144.694C80.7187 151.678 99.9562 152.334 108.675 144.534C112.341 141.253 113.784 138.422 109.903 133.622C101.859 123.694 98.925 112.744 106.312 100.753C113.541 89.0155 122.381 86.2967 133.941 92.6811C142.387 97.3498 145.162 108.74 139.631 119.044C136.425 125.025 132.028 130.369 128.091 136.115C134.709 146.812 139.312 148.434 150.909 143.831C153.234 142.912 155.522 141.9 157.772 140.822C174.328 132.956 174.216 132.956 172.162 115.069C170.559 101.119 173.747 88.978 186.394 80.8967C194.372 75.7967 200.559 77.7092 204.647 86.2217C212.156 101.85 207.553 124.087 193.837 131.428C192.028 132.394 190.594 134.072 188.916 135.478C198.581 143.306 209.831 140.944 216.281 128.447C224.072 113.334 229.941 97.228 236.981 80.7561C237.234 81.028 240.234 82.903 239.981 84.0748C235.866 102.994 232.387 122.465 219.891 138C206.447 154.706 195.497 155.053 179.522 141.122C160.453 150.234 142.425 169.931 120.244 145.744Z" fill="#9F9857"/>
</svg>
