<svg width="77" height="504" viewBox="0 0 77 504" fill="none" xmlns="http://www.w3.org/2000/svg">
<g clip-path="url(#clip0_75_542)">
<path d="M32.8342 347.871C24.6915 347.952 18.2914 351.849 12.8358 357.361C8.03163 362.22 2.70633 366.427 -2.65155 370.585C-10.9245 376.993 -20.3863 377.499 -29.1478 371.808C-32.8771 369.395 -36.2645 366.427 -39.6518 363.524C-45.4494 358.567 -45.3191 358.6 -39.8635 352.942C-38.1699 351.197 -37.0462 350.79 -35.1571 352.534C-33.0237 354.507 -30.6786 356.252 -28.3498 357.997C-18.6112 365.269 -9.63795 364.943 -0.387886 356.921C3.27631 353.741 6.67994 350.268 10.3767 347.121C22.9001 336.489 36.6124 335.641 50.9923 342.767C59.1676 346.827 66.7728 351.898 73.8081 357.752C75.6972 359.318 79.1497 360.818 75.2737 363.834C72.8309 365.742 71.7235 370.618 66.8217 365.97C59.5584 359.089 52.2789 351.866 42.0028 349.257C38.9738 348.49 35.961 347.887 32.8668 347.854L32.8342 347.871Z" fill="#979350"/>
<path d="M32.8342 390.625C24.6915 390.706 18.2914 394.604 12.8358 400.115C8.03163 404.974 2.70633 409.181 -2.65155 413.339C-10.9245 419.747 -20.3863 420.253 -29.1478 414.562C-32.8771 412.149 -36.2645 409.181 -39.6518 406.279C-45.4494 401.322 -45.3191 401.354 -39.8635 395.696C-38.1699 393.951 -37.0462 393.544 -35.1571 395.288C-33.0237 397.261 -30.6786 399.006 -28.3498 400.751C-18.6112 408.023 -9.63795 407.697 -0.387886 399.675C3.27631 396.495 6.67994 393.022 10.3767 389.875C22.9001 379.243 36.6124 378.395 50.9923 385.521C59.1676 389.581 66.7728 394.652 73.8081 400.506C75.6972 402.072 79.1497 403.572 75.2737 406.588C72.8309 408.496 71.7235 413.372 66.8217 408.725C59.5584 401.843 52.2789 394.62 42.0028 392.011C38.9738 391.245 35.961 390.641 32.8668 390.609L32.8342 390.625Z" fill="#979350"/>
<path d="M32.8342 433.363C24.6915 433.444 18.2914 437.341 12.8358 442.853C8.03163 447.712 2.70633 451.919 -2.65155 456.077C-10.9245 462.485 -20.3863 462.991 -29.1478 457.3C-32.8771 454.887 -36.2645 451.919 -39.6518 449.016C-45.4494 444.059 -45.3191 444.092 -39.8635 438.434C-38.1699 436.689 -37.0462 436.281 -35.1571 438.026C-33.0237 439.999 -30.6786 441.744 -28.3498 443.489C-18.6112 450.761 -9.63795 450.435 -0.387886 442.413C3.27631 439.233 6.67994 435.76 10.3767 432.613C22.9001 421.981 36.6124 421.133 50.9923 428.259C59.1676 432.319 66.7728 437.39 73.8081 443.244C75.6972 444.809 79.1497 446.31 75.2737 449.326C72.8309 451.234 71.7235 456.109 66.8217 451.462C59.5584 444.581 52.2789 437.358 42.0028 434.749C38.9738 433.982 35.961 433.379 32.8668 433.346L32.8342 433.363Z" fill="#979350"/>
<path d="M32.8342 476.117C24.6915 476.198 18.2914 480.096 12.8358 485.607C8.03163 490.466 2.70633 494.673 -2.65155 498.831C-10.9245 505.239 -20.3863 505.745 -29.1478 500.054C-32.8771 497.641 -36.2645 494.673 -39.6518 491.771C-45.4494 486.814 -45.3191 486.846 -39.8635 481.188C-38.1699 479.443 -37.0462 479.036 -35.1571 480.78C-33.0237 482.753 -30.6786 484.498 -28.3498 486.243C-18.6112 493.515 -9.63795 493.189 -0.387886 485.167C3.27631 481.987 6.67994 478.514 10.3767 475.367C22.9001 464.735 36.6124 463.887 50.9923 471.013C59.1676 475.073 66.7728 480.144 73.8081 485.998C75.6972 487.564 79.1497 489.064 75.2737 492.08C72.8309 493.988 71.7235 498.864 66.8217 494.216C59.5584 487.335 52.2789 480.112 42.0028 477.503C38.9738 476.736 35.961 476.133 32.8668 476.101L32.8342 476.117Z" fill="#979350"/>
<path d="M32.8342 178.795C24.6915 178.876 18.2914 182.773 12.8358 188.285C8.03163 193.144 2.70633 197.351 -2.65155 201.509C-10.9245 207.917 -20.3863 208.422 -29.1478 202.732C-32.8771 200.318 -36.2645 197.351 -39.6518 194.448C-45.4494 189.491 -45.3191 189.524 -39.8635 183.866C-38.1699 182.121 -37.0462 181.713 -35.1571 183.458C-33.0237 185.431 -30.6786 187.176 -28.3498 188.921C-18.6112 196.193 -9.63795 195.867 -0.387886 187.844C3.27631 184.665 6.67994 181.192 10.3767 178.045C22.9001 167.413 36.6124 166.565 50.9923 173.691C59.1676 177.751 66.7728 182.822 73.8081 188.676C75.6972 190.241 79.1497 191.742 75.2737 194.758C72.8309 196.666 71.7235 201.541 66.8217 196.894C59.5584 190.013 52.2789 182.79 42.0028 180.181C38.9738 179.414 35.961 178.811 32.8668 178.778L32.8342 178.795Z" fill="#979350"/>
<path d="M32.8342 221.532C24.6915 221.614 18.2914 225.511 12.8358 231.022C8.03163 235.882 2.70633 240.089 -2.65155 244.247C-10.9245 250.655 -20.3863 251.16 -29.1478 245.469C-32.8771 243.056 -36.2645 240.089 -39.6518 237.186C-45.4494 232.229 -45.3191 232.262 -39.8635 226.604C-38.1699 224.859 -37.0462 224.451 -35.1571 226.196C-33.0237 228.169 -30.6786 229.914 -28.3498 231.658C-18.6112 238.931 -9.63795 238.605 -0.387886 230.582C3.27631 227.403 6.67994 223.929 10.3767 220.782C22.9001 210.151 36.6124 209.303 50.9923 216.429C59.1676 220.489 66.7728 225.56 73.8081 231.414C75.6972 232.979 79.1497 234.479 75.2737 237.496C72.8309 239.404 71.7235 244.279 66.8217 239.632C59.5584 232.751 52.2789 225.527 42.0028 222.918C38.9738 222.152 35.961 221.549 32.8668 221.516L32.8342 221.532Z" fill="#979350"/>
<path d="M32.8342 264.287C24.6915 264.368 18.2914 268.265 12.8358 273.777C8.03163 278.636 2.70633 282.843 -2.65155 287.001C-10.9245 293.409 -20.3863 293.914 -29.1478 288.224C-32.8771 285.81 -36.2645 282.843 -39.6518 279.94C-45.4494 274.983 -45.3191 275.016 -39.8635 269.358C-38.1699 267.613 -37.0462 267.205 -35.1571 268.95C-33.0237 270.923 -30.6786 272.668 -28.3498 274.413C-18.6112 281.685 -9.63795 281.359 -0.387886 273.336C3.27631 270.157 6.67994 266.684 10.3767 263.536C22.9001 252.905 36.6124 252.057 50.9923 259.183C59.1676 263.243 66.7728 268.314 73.8081 274.168C75.6972 275.733 79.1497 277.233 75.2737 280.25C72.8309 282.158 71.7235 287.033 66.8217 282.386C59.5584 275.505 52.2789 268.281 42.0028 265.673C38.9738 264.906 35.961 264.303 32.8668 264.27L32.8342 264.287Z" fill="#979350"/>
<path d="M32.8342 307.041C24.6915 307.122 18.2914 311.019 12.8358 316.531C8.03163 321.39 2.70633 325.597 -2.65155 329.755C-10.9245 336.163 -20.3863 336.669 -29.1478 330.978C-32.8771 328.565 -36.2645 325.597 -39.6518 322.694C-45.4494 317.737 -45.3191 317.77 -39.8635 312.112C-38.1699 310.367 -37.0462 309.959 -35.1571 311.704C-33.0237 313.677 -30.6786 315.422 -28.3498 317.167C-18.6112 324.439 -9.63795 324.113 -0.387886 316.09C3.27631 312.911 6.67994 309.438 10.3767 306.291C22.9001 295.659 36.6124 294.811 50.9923 301.937C59.1676 305.997 66.7728 311.068 73.8081 316.922C75.6972 318.487 79.1497 319.988 75.2737 323.004C72.8309 324.912 71.7235 329.787 66.8217 325.14C59.5584 318.259 52.2789 311.036 42.0028 308.427C38.9738 307.66 35.961 307.057 32.8668 307.024L32.8342 307.041Z" fill="#979350"/>
<path d="M32.8344 9.71818C24.6918 9.79971 18.2916 13.6968 12.836 19.2082C8.03187 24.0674 2.70657 28.2743 -2.65131 32.4323C-10.9243 38.8406 -20.386 39.3461 -29.1475 33.6553C-32.8769 31.242 -36.2642 28.2743 -39.6516 25.3719C-45.4491 20.4149 -45.3189 20.4475 -39.8633 14.7893C-38.1696 13.0446 -37.0459 12.6369 -35.1568 14.3817C-33.0234 16.3547 -30.6784 18.0994 -28.3496 19.8442C-18.6109 27.1166 -9.63771 26.7905 -0.387642 18.768C3.27656 15.5883 6.68019 12.1152 10.377 8.96811C22.9004 -1.66336 36.6126 -2.51126 50.9926 4.61443C59.1678 8.67461 66.773 13.7458 73.8083 19.5996C75.6974 21.1649 79.1499 22.6651 75.274 25.6817C72.8312 27.5895 71.7238 32.465 66.8219 27.8178C59.5587 20.9367 52.2791 13.7131 42.0031 11.1042C38.974 10.3378 35.9612 9.73449 32.867 9.70188L32.8344 9.71818Z" fill="#979350"/>
<path d="M32.8342 52.4562C24.6915 52.5377 18.2914 56.4349 12.8358 61.9463C8.03163 66.8054 2.70633 71.0124 -2.65155 75.1704C-10.9245 81.5786 -20.3863 82.0841 -29.1478 76.3933C-32.8771 73.98 -36.2645 71.0124 -39.6518 68.1099C-45.4494 63.1529 -45.3191 63.1855 -39.8635 57.5274C-38.1699 55.7826 -37.0462 55.375 -35.1571 57.1197C-33.0237 59.0927 -30.6786 60.8375 -28.3498 62.5822C-18.6112 69.8547 -9.63795 69.5285 -0.387886 61.506C3.27631 58.3264 6.67994 54.8532 10.3767 51.7061C22.9001 41.0747 36.6124 40.2268 50.9923 47.3525C59.1676 51.4126 66.7728 56.4838 73.8081 62.3376C75.6972 63.903 79.1497 65.4031 75.2737 68.4197C72.8309 70.3275 71.7235 75.203 66.8217 70.5558C59.5584 63.6747 52.2789 56.4512 42.0028 53.8422C38.9738 53.0758 35.961 52.4725 32.8668 52.4399L32.8342 52.4562Z" fill="#979350"/>
<path d="M32.8342 95.2104C24.6915 95.2919 18.2914 99.189 12.8358 104.7C8.03163 109.56 2.70633 113.767 -2.65155 117.925C-10.9245 124.333 -20.3863 124.838 -29.1478 119.147C-32.8771 116.734 -36.2645 113.767 -39.6518 110.864C-45.4494 105.907 -45.3191 105.94 -39.8635 100.282C-38.1699 98.5368 -37.0462 98.1291 -35.1571 99.8739C-33.0237 101.847 -30.6786 103.592 -28.3498 105.336C-18.6112 112.609 -9.63795 112.283 -0.387886 104.26C3.27631 101.081 6.67994 97.6073 10.3767 94.4603C22.9001 83.8288 36.6124 82.9809 50.9923 90.1066C59.1676 94.1668 66.7728 99.2379 73.8081 105.092C75.6972 106.657 79.1497 108.157 75.2737 111.174C72.8309 113.082 71.7235 117.957 66.8217 113.31C59.5584 106.429 52.2789 99.2053 42.0028 96.5964C38.9738 95.83 35.961 95.2267 32.8668 95.1941L32.8342 95.2104Z" fill="#979350"/>
<path d="M32.8342 137.965C24.6915 138.046 18.2914 141.943 12.8358 147.455C8.03163 152.314 2.70633 156.521 -2.65155 160.679C-10.9245 167.087 -20.3863 167.592 -29.1478 161.902C-32.8771 159.488 -36.2645 156.521 -39.6518 153.618C-45.4494 148.661 -45.3191 148.694 -39.8635 143.036C-38.1699 141.291 -37.0462 140.883 -35.1571 142.628C-33.0237 144.601 -30.6786 146.346 -28.3498 148.09C-18.6112 155.363 -9.63795 155.037 -0.387886 147.014C3.27631 143.835 6.67994 140.361 10.3767 137.214C22.9001 126.583 36.6124 125.735 50.9923 132.861C59.1676 136.921 66.7728 141.992 73.8081 147.846C75.6972 149.411 79.1497 150.911 75.2737 153.928C72.8309 155.836 71.7235 160.711 66.8217 156.064C59.5584 149.183 52.2789 141.959 42.0028 139.351C38.9738 138.584 35.961 137.981 32.8668 137.948L32.8342 137.965Z" fill="#979350"/>
</g>
<defs>
<clipPath id="clip0_75_542">
<rect width="121" height="504" fill="white" transform="translate(-44)"/>
</clipPath>
</defs>
</svg>
