<svg width="142" height="364" viewBox="0 0 142 364" fill="none" xmlns="http://www.w3.org/2000/svg">
<g clip-path="url(#clip0_75_739)">
<path d="M25.5903 52.8721C23.8191 52.8721 22.0856 51.3459 21.1058 48.5949C15.453 32.6729 9.40448 24.3822 3.11105 23.93C2.92262 23.93 2.73421 23.9112 2.54578 23.9112C-8.00609 23.9112 -17.0506 44.8075 -17.1259 45.0336C-18.8029 48.9717 -22.0627 49.8762 -24.3992 47.0498C-26.7357 44.2234 -27.2821 38.7214 -25.6051 34.7645C-25.0964 33.5585 -12.8863 5.20053 3.50674 6.31224C13.5499 6.99057 22.4813 18.1642 30.056 39.5316C31.5446 43.7147 30.7343 49.1225 28.2659 51.6285C27.418 52.4764 26.4947 52.891 25.5903 52.891V52.8721Z" fill="#84587A"/>
<path d="M99.7171 59.1279C97.9459 59.1279 96.2124 57.6016 95.2326 54.8506C89.5798 38.9287 83.5313 30.638 77.2379 30.1857C77.0495 30.1857 76.861 30.1669 76.6726 30.1669C66.1207 30.1669 57.0763 51.0633 57.0009 51.2894C55.3239 55.2275 52.0641 56.1319 49.7277 53.3055C47.3912 50.4792 46.8447 44.9771 48.5217 41.0202C49.0305 39.8143 61.2028 11.4563 77.6336 12.568C87.6767 13.2463 96.6081 24.4199 104.183 45.7874C105.671 49.9704 104.861 55.3782 102.393 57.8843C101.545 58.7322 100.622 59.1467 99.7171 59.1467V59.1279Z" fill="#84587A"/>
<path d="M24.3656 167.717C22.5944 167.717 20.8608 166.191 19.881 163.44C14.2282 147.518 8.17975 139.227 1.88632 138.775C-8.91051 138.003 -18.2753 159.653 -18.3507 159.879C-20.0276 163.817 -23.2874 164.721 -25.6239 161.895C-27.9604 159.069 -28.5068 153.567 -26.8298 149.61C-26.3211 148.404 -14.1676 120.046 2.28202 121.157C12.3251 121.836 21.2565 133.009 28.8313 154.377C30.3198 158.56 29.5096 163.968 27.0412 166.474C26.1933 167.322 25.27 167.736 24.3656 167.736V167.717Z" fill="#84587A"/>
<path d="M98.4924 173.973C96.7212 173.973 94.9877 172.447 94.0079 169.696C88.3551 153.774 82.3066 145.483 76.0131 145.031C75.8247 145.031 75.6363 145.012 75.4479 145.012C64.896 145.012 55.8515 165.908 55.7762 166.135C54.0992 170.073 50.8394 170.977 48.5029 168.151C46.1664 165.324 45.62 159.822 47.297 155.865C47.8057 154.659 59.9592 126.301 76.4088 127.413C86.452 128.092 95.3834 139.265 102.958 160.633C104.447 164.816 103.636 170.223 101.168 172.729C100.32 173.577 99.3968 173.992 98.4924 173.992V173.973Z" fill="#84587A"/>
<path d="M57.717 115.505C55.9458 115.505 54.2123 113.978 53.2324 111.227C47.5797 95.3055 41.5312 87.0148 35.2378 86.5626C35.0493 86.5626 34.8609 86.5437 34.6725 86.5437C24.1206 86.5437 15.0762 107.44 15.0008 107.666C13.3238 111.604 10.064 112.509 7.72753 109.682C5.39105 106.856 4.84461 101.354 6.52161 97.397C7.03036 96.1911 19.2404 67.8331 35.6334 68.9448C45.6766 69.6231 54.608 80.7968 62.1827 102.164C63.6713 106.347 62.861 111.755 60.3926 114.261C59.5447 115.109 58.6214 115.524 57.717 115.524V115.505Z" fill="#84587A"/>
<path d="M131.844 121.779C130.073 121.779 128.339 120.253 127.359 117.502C121.707 101.58 115.658 93.2894 109.365 92.8372C98.5678 92.0646 89.203 113.715 89.1276 113.941C87.4506 117.879 84.1908 118.783 81.8544 115.957C79.5179 113.131 78.9714 107.629 80.6484 103.672C81.1572 102.466 93.3295 74.1077 109.76 75.2194C119.803 75.8977 128.735 87.0714 136.31 108.439C137.798 112.622 136.988 118.03 134.519 120.536C133.672 121.384 132.748 121.798 131.844 121.798V121.779Z" fill="#84587A"/>
<path d="M62.6538 242.88C60.8826 242.88 59.149 241.354 58.1692 238.603C52.5164 222.681 46.468 214.39 40.1745 213.938C39.9861 213.938 39.7977 213.919 39.6093 213.919C29.0574 213.919 20.0129 234.816 19.9376 235.042C18.2606 238.98 15.0008 239.884 12.6643 237.058C10.3278 234.232 9.78138 228.73 11.4584 224.773C11.9671 223.567 24.1206 195.209 40.5702 196.32C50.6133 196.999 59.5447 208.172 67.1195 229.54C68.608 233.723 67.7978 239.131 65.3294 241.637C64.4815 242.485 63.5582 242.899 62.6538 242.899V242.88Z" fill="#84587A"/>
<path d="M136.781 249.155C135.009 249.155 133.276 247.629 132.296 244.878C126.643 228.956 120.595 220.665 114.301 220.213C114.113 220.213 113.925 220.194 113.736 220.194C103.184 220.194 94.1398 241.09 94.0644 241.316C92.3874 245.254 89.1276 246.159 86.7911 243.332C84.4546 240.506 83.9082 235.004 85.5852 231.047C86.094 229.841 98.2851 201.483 114.697 202.595C124.74 203.273 133.672 214.447 141.246 235.814C142.735 239.997 141.925 245.405 139.456 247.911C138.608 248.759 137.685 249.174 136.781 249.174V249.155Z" fill="#84587A"/>
<path d="M61.4289 357.725C59.6577 357.725 57.9242 356.199 56.9444 353.448C51.2916 337.526 45.2431 329.236 38.9497 328.783C28.1905 328.011 18.8069 349.661 18.7127 349.887C17.0357 353.825 13.7759 354.729 11.4394 351.903C9.10296 349.077 8.55653 343.575 10.2335 339.618C10.7423 338.412 22.9335 310.054 39.3454 311.166C49.3885 311.844 58.3199 323.017 65.8946 344.385C67.3832 348.568 66.573 353.976 64.1046 356.482C63.2567 357.33 62.3334 357.744 61.4289 357.744V357.725Z" fill="#84587A"/>
<path d="M135.556 364C133.785 364 132.051 362.474 131.071 359.723C125.419 343.801 119.37 335.51 113.077 335.058C112.888 335.058 112.7 335.039 112.511 335.039C101.959 335.039 92.915 355.935 92.8397 356.162C91.1627 360.1 87.9029 361.004 85.5664 358.178C83.2299 355.351 82.6835 349.849 84.3605 345.892C84.8692 344.686 97.0416 316.328 113.472 317.44C123.515 318.118 132.447 329.292 140.022 350.66C141.51 354.843 140.7 360.25 138.232 362.756C137.384 363.604 136.46 364.019 135.556 364.019V364Z" fill="#84587A"/>
<path d="M20.6535 299.276C18.8823 299.276 17.1488 297.75 16.169 294.999C10.5162 279.077 4.46772 270.786 -1.82571 270.334C-2.01414 270.334 -2.20257 270.315 -2.391 270.315C-12.9429 270.315 -21.9873 291.211 -22.0627 291.437C-23.7397 295.375 -26.9995 296.28 -29.3359 293.454C-31.6724 290.627 -32.2189 285.125 -30.5419 281.168C-30.0331 279.962 -17.8419 251.604 -1.43002 252.716C8.6131 253.394 17.5445 264.568 25.1192 285.935C26.6078 290.118 25.7976 295.526 23.3292 298.032C22.4813 298.88 21.558 299.295 20.6535 299.295V299.276Z" fill="#84587A"/>
<path d="M94.7804 305.532C93.0092 305.532 91.2756 304.005 90.2958 301.254C84.643 285.332 78.5945 277.042 72.3011 276.589C72.1127 276.589 71.9243 276.571 71.7358 276.571C61.184 276.571 52.1395 297.467 52.0641 297.693C50.3871 301.631 47.1274 302.536 44.7909 299.709C42.4544 296.883 41.908 291.381 43.585 287.424C44.0937 286.218 56.2472 257.86 72.6968 258.972C82.7399 259.65 91.6713 270.824 99.2461 292.191C100.735 296.374 99.9244 301.782 97.456 304.288C96.6081 305.136 95.6848 305.55 94.7804 305.55V305.532Z" fill="#84587A"/>
</g>
<defs>
<clipPath id="clip0_75_739">
<rect width="281" height="364" fill="white" transform="translate(-139)"/>
</clipPath>
</defs>
</svg>
