<svg width="30" height="30" viewBox="0 0 30 30" fill="none" xmlns="http://www.w3.org/2000/svg">
<path d="M27.7832 0C29.0076 0.000248906 30 0.963308 30 2.14941V27.8516C29.9999 29.0379 29.0076 29.9998 27.7832 30H2.21777C0.993509 30 0 29.0378 0 27.8516V2.14941C0 0.963155 0.993509 0 2.21777 0H27.7832ZM4.5625 25.1123H9.09375V11.5654H4.5625V25.1123ZM20.2168 11.248C17.8116 11.2481 16.7348 12.5633 16.1328 13.4863V11.5664H11.6025C11.6615 12.839 11.6016 25.1123 11.6016 25.1123H16.1328V17.5479C16.1328 17.1435 16.1627 16.7379 16.2822 16.4492C16.6098 15.64 17.3556 14.8027 18.6074 14.8027C20.2464 14.8029 20.9023 16.0451 20.9023 17.8662V25.1123H25.4336V17.3447C25.4335 13.1842 23.1978 11.248 20.2168 11.248ZM6.85938 5.03516C5.30855 5.03516 4.29602 6.04662 4.2959 7.37598C4.2959 8.67594 5.27898 9.7168 6.7998 9.7168H6.8291L7.11816 9.7041C8.52807 9.58513 9.39258 8.59475 9.39258 7.37598C9.36277 6.04663 8.409 5.03517 6.85938 5.03516Z" fill="#F1F0E2"/>
</svg>
