<?xml version="1.0" encoding="UTF-8"?>
<svg id="Layer_1" data-name="Layer 1" xmlns="http://www.w3.org/2000/svg" viewBox="0 0 756 230.4">
  <defs>
    <style>
      .cls-1 {
        fill: #f2efe1;
      }
    </style>
  </defs>
  <g>
    <path class="cls-1" d="M715.19,114.07c-1.16-13.13-10.21-18.36-18.12-17.66-4.93.44-8.37,3.1-10.55,5.09l-.21.22-.48-.44c-1.83-1.48-3.75-2.51-4.05-2.49-.23.02-.29.03-3.21,6.35l-.03.07v.08c.02.18.13.24.39.37.46.24,1.7.87,2.7,1.9l.09.1c-4.96,8.58-7.65,19.79-6.87,28.62.32,3.66,1.37,6.39,3.1,8.12,1.26,1.26,2.88,1.93,4.61,1.93.2,0,.4,0,.6-.03,2.18-.19,5.36-1.88,7.72-6.02,2.75-4.84,3.8-11.99,3.04-20.68-.61-6.92-2.35-10.43-2.92-11.58-.04-.07-.07-.15-.1-.21.48-.65,3.27-3.66,6.89-3.98.91-.08,8.96-.46,9.95,10.82,1.15,12.96-9.02,23.41-14.75,23.91,0,0-.02,0-.05,0-.05-.01-.13-.03-.24-.02l-.62.06-.03,7.09c.01.16.12.34.39.37.11,0,.24,0,.46-.02,6.19-.55,12.24-4.54,16.59-10.96,4.25-6.27,6.33-13.93,5.71-21.02ZM683.01,138.45s-.07.06-.09.09c-.46-.97-.57-2.16-.63-2.89-.71-7.99,2.5-16.94,3.58-19.47.17.85.43,2.31.6,4.17.83,9.41-1.21,15.98-3.45,18.1Z"/>
    <path class="cls-1" d="M612.72,128.18c.02-.07.05-.13.08-.21.63-1.62,2.54-6.56,2.54-12.67,0-16.64-12.34-17.49-14.81-17.49-4.91,0-9.93,2.12-13.77,5.83-4.04,3.89-6.26,8.96-6.26,14.27v.25c0,.99.07,2.23.59,3.85l.13.24c-.51,1.03-1.74,3.68-1.74,7.43,0,4.51,1.49,8.33,4.31,11.03,2.54,2.44,5.98,3.78,9.68,3.78,5.7,0,10.78-3,15.1-8.9M590.77,122.63c-.17-.11-.27-.19-.32-.23.6-.7,3.61-3.38,8.7-4.04.29,0,.54-.05.54-.5,0-.13-.09-1.23-.23-3.01-.12-1.5-.25-3.21-.28-3.75l-.02-.3h-.3c-3.19.16-6.6,1.26-10.12,3.31.84-2.14,4.45-8.66,11.78-8.66,6.56,0,7.27,6.77,7.27,9.69,0,3.88-1.11,8.38-2.96,12.02-.1.2-.18.36-.24.46-1.25-.11-9.43-1.41-13.83-4.97ZM593.52,136.96h-.13c-1.05,0-6.31-.35-6.31-7.33,0-.11,0-.21,0-.29,3.05,2.19,7.05,3.85,11.91,4.92.2.04.39.08.55.12-.91.8-3.35,2.59-6.02,2.59Z"/>
    <path class="cls-1" d="M667.69,127.48c-.21,0-.37.16-.95.74-1.69,1.69-6.19,6.19-12.66,6.19h-.38c-2.18,0-7.27-.84-7.27-8.6,0-.59.06-1.25.11-1.6.09.03.18.06.28.09,1.1.35,3.68,1.18,7.45,1.18,6.96,0,11.4-2.66,13.9-4.89,3.08-2.75,4.92-6.43,4.92-9.86,0-4.34-3.11-10.81-11.7-10.81-10.48,0-17.33,8.72-19.29,11.58-.49-.43-1.71-1.64-2.62-2.75l-.21-.26-.24.24c-.14.14-1.49,1.29-2.8,2.41q-3.4,2.91-3.4,3.09c0,.3,1.82,2.14,2.19,2.51,1.6,1.6,2.61,2.37,3.16,2.79.16.12.3.23.37.3-.02.08-.05.22-.08.36-.2.84-.67,2.8-.67,5.69v.25c0,1.41.19,5.08,1.94,8.69,2.37,4.89,6.56,7.63,12.44,8.16.29.07.73.07,1.39.07,12.54,0,20.15-9.5,20.22-9.6l.17-.22-6.15-5.75h-.12ZM649.56,116.05l.11-.18c2.95-4.24,7.85-7.31,11.65-7.31,2.79,0,3,1.62,3,2.11,0,2.12-3.21,5.48-8.46,6.13-.36.06-1.19.06-1.8.06-1.87,0-3.7-.52-4.51-.8Z"/>
    <path class="cls-1" d="M636.47,142.03c-2.13,0-5.72-.67-5.72-5.2v-30.08h7.79v-7.51h-7.79v-8.72l-8.5.08v8.64h-7.21v7.51h7.21v30.65c0,7.69,4.26,11.93,11.98,11.93,1.37,0,2.77-.18,4.17-.53l.23-.06v-6.94l-.36.07c-.55.1-1.16.15-1.81.15Z"/>
    <path class="cls-1" d="M560.1,132.68c10.44,0,17.37-7,17.37-17.37s-6.94-17.37-17.37-17.37-17.37,6.94-17.37,17.37,7,17.37,17.37,17.37ZM560.42,106.4c5.66,0,8.46,4.45,8.46,8.91s-2.8,8.85-8.46,8.85-8.08-4.45-8.08-8.85,2.67-8.91,8.08-8.91Z"/>
    <path class="cls-1" d="M555.46,141.72c-12.15,0-17.56-3.88-25.07-13.05,5.92-2.23,9.61-7.64,9.61-14.89,0-9.55-6.43-15.91-15.97-15.91h-20.75v49.64h9.67v-17.75h7.45c10.95,15.08,19.15,20.43,34.74,20.62,7.64-.13,14.24-.73,24.16-7.79l-4.96-7.06c-9.16,6.49-14.3,6.2-18.88,6.2ZM523.83,121.16h-10.88v-14.7h10.88c4.39,0,7.38,2.93,7.38,7.32s-2.99,7.38-7.38,7.38Z"/>
  </g>
  <g>
    <g>
      <path class="cls-1" d="M107.77,62.76h9.61c-.12,6.55-.59,12.87-1.44,18.94h20.14V29.49h-20.14c.84,5.44,1.3,11.11,1.43,17.01h-9.6c.12-6.48.61-12.16,1.46-17.01h-20.14v52.21h20.14c-.86-5.39-1.35-11.71-1.46-18.94Z"/>
      <path class="cls-1" d="M208.95,81.7h21.56v-17.15c-3.93.35-7.87.56-11.82.63-2.76.05-6.01.08-9.73.1v-4.24h18.57v-11.41h-18.57v-3.72c3.62.02,6.79.05,9.47.1,3.88.08,7.76.29,11.63.63v-17.15h-39.38v52.21h18.27Z"/>
      <path class="cls-1" d="M252.66,65.97c-1.44-4.77-3.43-10-5.97-15.66h4.1l5.89,23.94c.6,2.49,1.75,4.35,3.47,5.59,1.71,1.24,4.09,1.86,7.12,1.86h10.96V29.49h-20.14c0,4.43.31,8.38.93,11.86.62,3.48,1.44,6.56,2.46,9.25,1.02,2.68,2.35,5.72,3.99,9.1h-4.33l-4.48-20.29c-.65-2.88-1.38-5.02-2.2-6.41-.82-1.39-1.85-2.32-3.1-2.8-1.24-.47-3.01-.71-5.3-.71h-12.6v52.21h22.3c-.65-5.72-1.69-10.96-3.13-15.74Z"/>
      <path class="cls-1" d="M309.35,56.68c-1.84.87-3.16,2.06-3.95,3.58-.8,1.52-1.34,3.59-1.64,6.23l-1.64,15.22h22.53l.3-18.72c0-1.49.5-2.56,1.49-3.21.3.5.56,1.28.78,2.35.22,1.07.56,3.12,1.01,6.15l.37,2.31c.65,3.93,1.98,6.82,3.99,8.69,2.01,1.86,5.26,2.8,9.73,2.8,3.53,0,6.24-.12,8.13-.37v-25.06c-1.89.05-4.35.07-7.38.07-2.44,0-4.45-.67-6.04-2.01v-1.42c2.78-.55,4.92-1.3,6.41-2.27,1.49-.97,2.6-2.23,3.32-3.77.72-1.54,1.26-3.63,1.6-6.27l1.64-11.49h-21.03l-.08,13.13c0,1.59-.17,2.75-.52,3.47-.35.72-.9,1.16-1.64,1.3l-1.27-8.06c-.4-2.49-1-4.45-1.79-5.89-.8-1.44-2.11-2.52-3.95-3.24-1.84-.72-4.4-1.08-7.68-1.08-4.03,0-6.99.12-8.88.37v21.33c1.89-.05,4.6-.07,8.13-.07,1.39,0,2.56.21,3.51.63.94.42,1.79,1.13,2.54,2.12v1.42c-3.48.3-6.14.88-7.98,1.75Z"/>
      <rect class="cls-1" x="282.47" y="29.49" width="16.61" height="52.21"/>
      <path class="cls-1" d="M163.44,82.3c8.25,0,14.43-2.09,18.53-6.27,4.1-4.18,6.15-10.99,6.15-20.44s-2.08-16.04-6.23-20.36c-4.15-4.33-10.31-6.49-18.46-6.49s-14.31,2.16-18.46,6.49c-4.15,4.33-6.23,11.11-6.23,20.36s2.05,16.26,6.15,20.44c4.1,4.18,10.28,6.27,18.53,6.27ZM158.82,47.88c.94-1.57,2.49-2.35,4.62-2.35s3.68.78,4.62,2.35c.94,1.57,1.42,4.14,1.42,7.72s-.47,6-1.42,7.57c-.94,1.57-2.49,2.35-4.62,2.35s-3.68-.78-4.62-2.35c-.94-1.57-1.42-4.09-1.42-7.57s.47-6.15,1.42-7.72Z"/>
      <path class="cls-1" d="M132.54,115.75c-.2,7.84-.42,13.74-.67,17.71h-1.04l-2.68-35.35h-14.36l-2.68,35.35h-1.04c-.2-3.97-.4-9.87-.6-17.71-.2-7.84-.42-13.72-.67-17.64h-19.12c.5,3.67,1.01,7.84,1.53,12.5.52,4.66,1.03,9.18,1.52,13.54,1.24,11.21,2.26,19.89,3.05,26.04h23.37c.35-5.85.67-14.68.97-26.49.1-1.93.2-4.89.3-8.85h1.19c.1,2.43.2,5.98.3,10.64.3,11.01.6,19.25.89,24.71h23.36c.5-3.72,1-7.9,1.52-12.54.52-4.64,1.03-9.14,1.53-13.51,1.29-11.61,2.31-20.29,3.05-26.04h-19.12c-.2,3.92-.4,9.8-.6,17.64Z"/>
      <path class="cls-1" d="M174.2,133.82v-4.23h18.53v-11.39h-18.53v-3.71c3.6.02,6.77.05,9.45.1,3.87.07,7.74.29,11.61.63v-17.11h-39.29v52.09h39.74v-17.11c-3.92.35-7.85.56-11.79.63-2.75.05-6.01.08-9.71.1Z"/>
      <path class="cls-1" d="M217.74,133.82v-4.23h18.53v-11.39h-18.53v-3.71c3.6.02,6.77.05,9.45.1,3.87.07,7.74.29,11.61.63v-17.11h-39.29v52.09h39.74v-17.11c-3.92.35-7.85.56-11.79.63-2.75.05-6.01.08-9.71.1Z"/>
      <path class="cls-1" d="M273.78,123.27v-1.41c3.12-.54,5.52-1.3,7.18-2.27,1.66-.97,2.85-2.22,3.57-3.76.72-1.54,1.28-3.62,1.67-6.25l1.64-11.46h-21.73l-.3,14.21c-.05,1.29-.42,2.34-1.12,3.16-.69.82-1.56,1.23-2.6,1.23h-.22c-.04-1.87-.08-3.75-.11-5.62-.07-4.34-.11-8.67-.11-12.99h-18.6v52.09h19.35c0-6.8-.1-14.42-.3-22.78.51.07.94.22,1.23.53.37.4.67,1.12.89,2.16.22,1.04.56,3.05,1,6.03l.52,2.98c.64,3.92,1.97,6.81,3.98,8.67,2.01,1.86,5.25,2.79,9.71,2.79,4.02,0,6.97-.12,8.85-.37v-25c-1.89.05-4.71.07-8.48.07-2.43,0-4.44-.67-6.03-2.01Z"/>
      <path class="cls-1" d="M382.87,99.65c-3.12-1.88-7.26-2.83-12.41-2.83s-9.29.94-12.41,2.83c-3.12,1.88-5.42,4.8-6.9,8.75-1.48,3.95-2.22,9.14-2.22,15.57s.73,11.84,2.18,15.76c1.45,3.92,3.74,6.78,6.87,8.56,3.12,1.79,7.28,2.68,12.48,2.68s9.36-.89,12.48-2.68c3.12-1.78,5.41-4.64,6.87-8.56,1.45-3.92,2.18-9.17,2.18-15.76s-.74-11.63-2.22-15.57c-1.48-3.95-3.78-6.86-6.9-8.75ZM381.12,125.22c-.09.46-.41.65-.79.64-1.78-.05-3.47.58-5.22.8-.26.03-.51.08-.88.14.99,1.14,1.75,2.36,2.56,3.52.57.81,1.04,1.68,1.45,2.59.13.29.19.61-.07.86-.25.23-.52.19-.78.01-1.59-1.1-3.3-2.01-4.53-3.69-.27-.37-.71-.6-1.08-.87-.29-.21-.31.1-.34.28-.23,1.75-.76,3.41-1.21,5.1-.14.5-.3.99-.48,1.47-.15.4-.39.79-.82.69-.44-.1-.47-.56-.5-1.01-.1-1.86-.11-3.73-.29-5.59-.08-.82-.08-.83-.74-.42-1.26.79-2.49,1.65-3.88,2.14-.5.17-.99.36-1.49.49-.32.09-.64,0-.82-.36-.17-.36-.11-.75.12-.99,1.36-1.42,2.19-3.33,3.48-4.81.19-.22.61-.4.48-.76-.11-.29-.52-.26-.8-.32-1.33-.28-2.66-.54-4-.78-.39-.07-.7-.23-.72-.71-.03-.49.34-.6.66-.7,1.59-.48,3.15-1.09,4.79-1.38.85-.15.86-.23.57-1.12-.49-1.54-1-3.07-1.42-4.63-.03-.1-.07-.19-.09-.3-.08-.39-.39-.82-.02-1.17.38-.36.73,0,1.06.21,1.08.68,1.88,1.74,2.8,2.65.22.22.37.53.71.67.34-.86.49-1.78.7-2.68.28-1.2.85-2.27,1.17-3.46.05-.17.18-.32.29-.45.39-.47.83-.38,1.02.23.16.5.2,1.02.2,1.55,0,1.43,0,2.86.02,4.28,0,.33.06.66.1,1.08.61-.51,1.02-1.13,1.46-1.7.57-.74,1.23-1.31,1.98-1.78.29-.18.55-.28.82-.04.27.26.33.64.18.98-.39.86-.61,1.8-.96,2.68-.22.57-.47,1.14-.7,1.71-.06.15-.19.33-.08.46.12.15.32.06.47,0,1.24-.46,2.51-.74,3.78-1,.2-.04.4-.06.61-.08.28-.02.53.06.64.38.11.35.02.67-.27.88-.39.28-.77.58-1.19.8-.71.38-1.41.8-2.23,1.27,1.24.28,2.32.67,3.38,1.14.14.06.27.13.41.21.32.19.56.44.48.89Z"/>
      <path class="cls-1" d="M476.7,118.85c-2.39-.91-5.63-1.36-9.71-1.36h-7.48c-1.56,0-2.63-.12-3.21-.37-.58-.25-.87-.79-.87-1.62s.3-1.39.91-1.66c.6-.27,1.66-.41,3.17-.41,2.97,0,6.87.25,11.71.74,4.53.49,8.08.74,10.65.74v-16.65h-40.79l-.45,22.03c-.05,1.97.49,3.42,1.62,4.35,1.13.93,2.96,1.4,5.48,1.4h13.9c2.01,0,3.41.23,4.19.7.78.47,1.17,1.32,1.17,2.54,0,1.38-.38,2.31-1.13,2.8-.75.49-2.01.74-3.78.74-.96,0-1.99-.11-3.1-.33-1.11-.22-2.24-.48-3.4-.77-2.57-.69-4.91-1.23-7.02-1.62-2.11-.39-4.73-.66-7.85-.81v18.71c4.18.98,7.73,1.66,10.65,2.03,2.92.37,6.39.55,10.42.55,7.55,0,13.08-1.55,16.58-4.64,3.5-3.09,5.25-7.44,5.25-13.04,0-4.03-.55-7.15-1.66-9.36-1.11-2.21-2.86-3.77-5.25-4.68Z"/>
      <path class="cls-1" d="M320.63,130.22c.58-.25,1.64-.38,3.2-.38h5.94c5.77,0,9.97-1.29,12.6-3.87,2.63-2.58,3.95-6.43,3.95-11.55,0-5.62-1.97-9.9-5.9-12.86-3.94-2.96-9.24-4.44-15.91-4.44s-12.07,1.52-15.61,4.55c-3.54,3.03-5.3,7.63-5.3,13.8v3.38h15.8v-.9c0-1.05.48-1.97,1.43-2.75.95-.78,2.31-1.17,4.06-1.17,1.55,0,2.76.39,3.61,1.17.85.78,1.28,1.79,1.28,3.05,0,1.15-.39,1.97-1.17,2.44-.78.48-2.17.71-4.17.71h-4.66c-11.03,0-16.55,4.79-16.55,14.37v14.74h41.97v-18.2c-2.76,0-6.49.25-11.21.75-4.51.5-7.9.75-10.15.75-1.5,0-2.56-.14-3.16-.41-.6-.27-.9-.81-.9-1.62s.29-1.33.86-1.58Z"/>
      <path class="cls-1" d="M412.77,130.22c.58-.25,1.64-.38,3.2-.38h5.94c5.77,0,9.97-1.29,12.6-3.87,2.63-2.58,3.95-6.43,3.95-11.55,0-5.62-1.97-9.9-5.9-12.86-3.94-2.96-9.24-4.44-15.91-4.44s-12.07,1.52-15.61,4.55c-3.54,3.03-5.3,7.63-5.3,13.8v3.38h15.8v-.9c0-1.05.48-1.97,1.43-2.75.95-.78,2.31-1.17,4.06-1.17,1.55,0,2.76.39,3.61,1.17.85.78,1.28,1.79,1.28,3.05,0,1.15-.39,1.97-1.17,2.44-.78.48-2.17.71-4.17.71h-4.66c-11.03,0-16.55,4.79-16.55,14.37v14.74h41.97v-18.2c-2.76,0-6.49.25-11.21.75-4.51.5-7.9.75-10.15.75-1.5,0-2.56-.14-3.16-.41-.6-.27-.9-.81-.9-1.62s.29-1.33.87-1.58Z"/>
      <path class="cls-1" d="M462.11,64.36c-3.92.35-7.85.56-11.79.63-2.75.05-6.01.08-9.71.1v-4.23h18.53v-11.39h-18.53v-3.71c3.6.02,6.77.05,9.45.1,3.87.07,7.74.29,11.61.63v-17.11h-39.29v52.09h39.74v-17.11Z"/>
      <path class="cls-1" d="M505.64,51.38c-2.65-1.02-6.34-1.52-11.05-1.52h-6.62c-1.54,0-2.59-.12-3.16-.37-.57-.25-.86-.77-.86-1.56s.3-1.33.89-1.6c.6-.27,1.64-.41,3.13-.41,2.63,0,6.52.25,11.68.74,5.16.5,9.05.75,11.68.75v-18.01h-27.38c-6.2,0-10.85,1.13-13.95,3.39-3.1,2.26-4.65,5.99-4.65,11.2s1.55,8.63,4.65,10.86c3.1,2.23,7.75,3.35,13.95,3.35h5.36c1.98,0,3.36.24,4.13.71.77.47,1.15,1.28,1.15,2.42,0,1.24-.46,2.25-1.38,3.01-.92.77-2.32,1.15-4.21,1.15-1.74,0-3.08-.38-4.02-1.15-.94-.77-1.41-1.67-1.41-2.72v-.89h-17.86v3.35c0,6.15,1.86,10.72,5.58,13.69,3.72,2.98,9.5,4.46,17.34,4.46s13.72-1.55,17.93-4.65c4.22-3.1,6.33-7.5,6.33-13.21,0-3.42-.55-6.19-1.64-8.3-1.09-2.11-2.96-3.67-5.62-4.69Z"/>
      <path class="cls-1" d="M561.84,58.93h5.43c-.2,1.87-.6,3.34-1.23,4.35-.92,1.46-2.42,2.19-4.5,2.19-3.97,0-5.95-3.35-5.95-10.05,0-3.22.88-5.62,2.64-7.18,1.76-1.56,4.63-2.34,8.6-2.34,2.83,0,5.48.11,7.96.33,2.48.22,5.51.61,9.08,1.15v-18.01h-22.25c-8.19,0-14.34,2.05-18.45,6.14-4.12,4.09-6.18,10.73-6.18,19.91,0,6.35.64,11.49,1.93,15.4,1.29,3.92,3.36,6.8,6.21,8.63,2.85,1.84,6.66,2.75,11.42,2.75s8.49-1.18,10.9-3.53c2.41-2.36,3.71-6.21,3.91-11.57h.6l.74,14.36h11.91v-31.48h-22.77v8.93Z"/>
      <path class="cls-1" d="M612.96,29.39c0,4.42.31,8.36.93,11.83.62,3.47,1.44,6.55,2.46,9.23,1.02,2.68,2.34,5.7,3.98,9.08h-4.32l-4.46-20.24c-.65-2.88-1.38-5.01-2.2-6.4-.82-1.39-1.85-2.32-3.09-2.79-1.24-.47-3-.71-5.28-.71h-12.57v52.09h22.25c-.65-5.7-1.69-10.94-3.13-15.7-1.44-4.76-3.42-9.97-5.95-15.63h4.09l5.88,23.89c.6,2.48,1.75,4.34,3.46,5.58,1.71,1.24,4.08,1.86,7.11,1.86h10.94V29.39h-20.09Z"/>
      <rect class="cls-1" x="515.65" y="29.39" width="18.18" height="51.94"/>
      <path class="cls-1" d="M419.71,54.87c0-8.88-2.07-15.44-6.21-19.68-4.14-4.24-10.28-6.36-18.42-6.36h-22.77v52.09h22.77c8.19,0,14.34-2.05,18.45-6.14,4.12-4.09,6.18-10.73,6.18-19.91ZM399.99,45.2c1.24,1.11.6,3.13.11,4.48-.44,1.13-1.35,1.96-2.19,2.79.96-.5,2.08-.76,3.15-.51,1.34.35,2.55,1.35,2.93,2.71.35,1.09.41,2.32-.14,3.36-.38.79-1.31.98-2.07,1.23-.81.28-1.5.12-2.29-.14-1.06-.26-1.53-.71-2.32-1.4.77,1.47.86,2.35.71,3.98-.1.83-.27,1.68-.72,2.39-.47.66-.99,1.35-1.71,1.75-.01,0-.02.01-.03.02-1.2.63-2.69.19-3.68-.66-.76-.71-1.05-1.84-1.21-2.83-.19-1.96.56-3.41,1.61-4.98-1.22.73-2.49,1.58-3.95,1.65-.94.03-1.92-.26-2.6-.93-.45-.49-.87-1.08-.91-1.76.05-1.08.64-2.16,1.55-2.77,1.13-.78,2.58-.95,3.92-.83-1.22-1.26-2.24-2.93-2.4-4.7-.11-1.62.97-3.3,2.76-2.81.74.22,1.5.52,2.1,1.03,1.08,1.02,1.58,2.41,1.76,3.85.28-1.64.86-4.42,2.57-5.08.96-.37,2.21-.52,3.06.18Z"/>
    </g>
    <path class="cls-1" d="M80.76,34.06c-4.06-3.09-10.28-4.64-18.65-4.64h-22.13v52.34h19.07c0-3.75-.03-7.74-.09-11.96h3.15c8.32,0,14.53-1.52,18.62-4.56,4.09-3.04,6.13-8.17,6.13-15.4s-2.03-12.68-6.09-15.78ZM74.17,49.15c-.24.54-.56.92-1.2,1.67-.4.48-.85.97-1.5,1.52-.73.61-1.56,1.11-2.45,1.44-.66.25-.71.32-1.42.66-.87.43-1.56.82-2,1.08-.12.41-.2.75-.25.98-.11.57-.11.84-.24,1.37-.07.28-.12.58-.24.85-.15.14-.39.14-.58.17-.47.05-.95.02-1.42.01-.32,0-.64.04-.97.04,0,0-.01,0-.02,0-.24,0-.5,0-.5-.31-.05-.33-.08-.67-.11-1-.05-.79-.02-1.59-.13-2.38-1.5.02-2.7-.19-3.52-.39-.62-.15-1.09-.24-1.65-.55-.92-.52-1.65-1.31-2.37-2.07-.65-.78-1.4-1.66-1.27-2.74.03-.22.05-.87.5-1.43.86-1.07,2.59-1.06,3.7-.7.9.29,1.52.97,2.82,2.24.71.69,1.34,1.45,1.94,2.24-.16-2.34-.54-4.67-.6-7.02-.02-1.16-.06-2.34.14-3.49.19-.82.3-1.74.88-2.39.7-.67,1.9-1.34,2.84-.82.53.29,1.09.63,1.44,1.14.5.85.54,1.87.59,2.84.11,2.67-.04,5.35-.25,8.02.36-.82.86-1.57,1.36-2.31.88-1.28,1.31-1.93,2.1-2.48,1.01-.7,2.88-1.48,3.92-.68.44.34.57.84.73,1.46.39,1.5-.13,2.75-.26,3.03Z"/>
  </g>
  <g>
    <g>
      <g>
        <path class="cls-1" d="M376,168.79v37.83h37.83v-37.83s-37.83,0-37.83,0ZM386.82,192.53h-4.6s-.07-.01-.02-.03c.05-.03,1.54-.51,1.65-.54.23-.08.29-.13.29-.48,0-.34.1-2.34.1-2.46,0-.13.03-.37-.29-.4-.15-.01-.66-.06-1.18-.07-.63-.02-1.29,0-1.4,0-.35,0-.44.02-.64.18-.16.12-2.37,2.85-2.45,2.98-.09.13-.07.26.16.33.24.07,1.64.36,1.96.43.05,0,.03.06-.03.06h-4.33s-.03,0-.05,0v-.07s.04-.01.04-.02c.03-.01.61-.21.91-.44.15-.09,8.36-9.05,8.5-9.18.04-.04.09-.03.11,0,.04.07-.09,8.57-.09,8.71,0,.15.03.33.26.44.22.1,1.04.46,1.14.5.04.02.02.06-.05.06ZM392.08,183.62c-.23.1-.3.22-.36.4-.04.14-1.78,7.46-1.8,7.59-.04.17-.04.31.15.38.2.08,1.19.43,1.27.47.08.03.06.08-.03.08h-4.26c-.08,0-.12-.02-.04-.06.09-.04,1.03-.38,1.11-.41.1-.04.35-.13.41-.34.04-.16,1.83-7.52,1.87-7.66.04-.18.02-.36-.19-.44-.11-.04-1.21-.41-1.24-.43-.06-.02-.06-.06,0-.06h4.47c.05,0,.09.03.03.05-.07.02-.8.23-.88.26-.09.03-.35.11-.49.18ZM400.71,191.95c-.13.05-1.62.62-3.06.66-3.71.1-5.07-2.49-4.43-4.85.33-1.24,1.14-2.41,2.17-3.22.59-.46,2.35-1.55,4.64-1.55.43,0,1.54.06,2.35.26.4.1.34.32.29.49-.02.08-.9,2.7-.92,2.76-.04.1-.12.1-.12,0,0-.06.11-2.38.1-2.48,0-.24,0-.4-.28-.48-.38-.13-2.2-.28-3.55.34-2.25,1.05-3.57,3.48-3.3,5.41.22,1.59,1.49,2.9,3.5,2.95.63.02,1.1-.08,1.23-.12.2-.06.23-.12.28-.23.04-.12.38-1.54.39-1.6.02-.06.1-.27-.1-.32-.21-.06-2.04-.55-2.13-.57-.1-.02-.05-.07.02-.07h3.43c.14,0,.5-.03.41.31-.1.35-.62,1.99-.67,2.1-.04.12-.15.18-.27.23ZM412.01,192.53h-4.6s-.07-.01-.02-.03c.05-.03,1.53-.51,1.65-.54.23-.08.28-.13.29-.48,0-.34.11-2.34.11-2.46,0-.13.03-.37-.29-.4-.15-.01-.66-.06-1.18-.07-.63-.02-1.28,0-1.4,0-.35,0-.44.02-.65.18-.16.12-2.36,2.85-2.45,2.98-.09.13-.06.26.17.33.24.07,1.64.36,1.96.43.04,0,.03.06-.03.06h-4.33s-.04-.05,0-.06c.03-.02.6-.23.9-.46.16-.09,8.37-9.05,8.51-9.18.04-.04.09-.03.11,0,.04.07-.09,8.57-.09,8.71,0,.15.02.33.26.44.22.1,1.04.46,1.14.5.04.02.02.06-.05.06Z"/>
        <path class="cls-1" d="M409.19,185.08c-.09.1-2.43,2.62-2.56,2.77-.13.14-.14.33.21.33,0,0,1.93,0,2.24,0s.4-.11.4-.3c0-.13.03-2.46.03-2.73s-.15-.27-.32-.08Z"/>
        <path class="cls-1" d="M384.01,185.08c-.09.1-2.44,2.62-2.56,2.77-.13.14-.14.33.21.33,0,0,1.92,0,2.24,0s.4-.11.4-.3c0-.13.04-2.46.04-2.73s-.15-.27-.32-.08Z"/>
      </g>
      <g>
        <path class="cls-1" d="M286.13,192.17v-9.14h3.72c1.68,0,2.8,1.13,2.8,2.86s-1.11,2.87-2.8,2.87h-2.29v3.41h-1.42ZM287.56,187.51h2.26c.94,0,1.59-.66,1.59-1.62s-.66-1.61-1.59-1.61h-2.26v3.23Z"/>
        <path class="cls-1" d="M297.87,186.58c-.18-.08-.39-.12-.61-.12-1.32,0-1.93,1.11-1.93,2.25v3.47h-1.44v-6.93h1.44v1.19c.44-.68,1.2-1.33,2.25-1.33.06,0,.15,0,.29.01v1.46Z"/>
        <path class="cls-1" d="M305.53,189.02h-5.62c.14.79.65,2.06,2.42,2.06.64,0,1.26-.11,1.84-.4l.56.96c-.74.44-1.56.65-2.4.65-2.18,0-3.68-1.34-3.68-3.6,0-2.14,1.48-3.66,3.58-3.66,2.28,0,3.31,1.63,3.31,3.83v.15ZM304.16,187.89c-.13-.52-.55-1.58-1.94-1.58-1.56,0-2.04.99-2.21,1.58h4.15Z"/>
        <path class="cls-1" d="M307.05,190.35c.71.43,1.6.73,2.41.73.51,0,1.21-.15,1.21-.79,0-.46-.39-.71-.78-.85-.39-.17-.91-.27-1.42-.42-1.05-.29-1.89-.69-1.89-1.68,0-1.52,1.4-2.26,2.82-2.26,1,0,1.72.2,2.53.72l-.66,1.18c-.55-.39-1.25-.65-1.94-.65-.52,0-1.24.22-1.24.85,0,.41.46.58.79.69.38.13.89.22,1.41.39,1.02.32,1.89.79,1.89,1.87,0,.29-.08.6-.21.87-.49.96-1.55,1.31-2.64,1.31-.92,0-2.13-.26-2.89-.81l.6-1.14Z"/>
        <path class="cls-1" d="M319.96,189.02h-5.62c.14.79.65,2.06,2.42,2.06.64,0,1.26-.11,1.84-.4l.56.96c-.74.44-1.56.65-2.4.65-2.18,0-3.68-1.34-3.68-3.6,0-2.14,1.48-3.66,3.58-3.66,2.28,0,3.31,1.63,3.31,3.83v.15ZM318.59,187.89c-.13-.52-.55-1.58-1.94-1.58-1.56,0-2.04.99-2.21,1.58h4.15Z"/>
        <path class="cls-1" d="M327.9,188.61v3.55h-1.48v-3.46c0-.99-.49-2.25-1.76-2.25s-1.93,1.11-1.93,2.25v3.46h-1.44v-6.92h1.44v1.19c.44-.68,1.2-1.33,2.25-1.33.38,0,2.93.13,2.93,3.51Z"/>
        <path class="cls-1" d="M333.18,192.29c-.25.06-.49.09-.75.09-1.61,0-2.49-.87-2.49-2.54v-3.41h-1.11v-1.21h1.11v-1.54l1.42-.53v2.07h1.8v1.21h-1.8v3.28c0,1.02.69,1.51,1.59,1.51.09,0,.16-.01.24-.01v1.08Z"/>
        <path class="cls-1" d="M341.14,189.02h-5.62c.14.79.65,2.06,2.42,2.06.64,0,1.26-.11,1.84-.4l.56.96c-.74.44-1.56.65-2.4.65-2.18,0-3.68-1.34-3.68-3.6,0-2.14,1.48-3.66,3.58-3.66,2.28,0,3.31,1.63,3.31,3.83v.15ZM339.78,187.89c-.13-.52-.55-1.58-1.94-1.58-1.56,0-2.04.99-2.21,1.58h4.15Z"/>
        <path class="cls-1" d="M347.94,192.15v-1.24l-.35.45c-.49.62-1.24.93-2.02.93-2.04,0-3.36-1.55-3.36-3.61s1.33-3.62,3.36-3.62c.79,0,1.52.32,2.02.94l.35.45v-3.96h1.42v9.67h-1.42ZM347.95,188.68c0-1.27-.89-2.35-2.21-2.35s-2.09,1.12-2.09,2.35.76,2.34,2.09,2.34,2.21-1.06,2.21-2.34Z"/>
        <path class="cls-1" d="M355.01,192.17v-9.15h4.38c1.34,0,2.44.95,2.44,2.33,0,.62-.25,1.21-.72,1.61l-.28.2.32.15c.85.36,1.31,1.28,1.31,2.22,0,1.58-1.11,2.63-2.65,2.63h-4.79ZM356.42,186.75h2.81c.69,0,1.16-.6,1.16-1.25s-.47-1.27-1.16-1.27h-2.81v2.52ZM356.42,190.95h3.18c.81,0,1.38-.68,1.38-1.46s-.56-1.46-1.38-1.46h-3.18v2.92Z"/>
        <path class="cls-1" d="M363.91,193.67c.94,0,1.67-.28,2.07-1.2l.02-.07-2.65-7.18h1.52c.35.99,1.88,5.19,1.88,5.19l1.89-5.19h1.52c-.45,1.19-2.64,7.08-2.64,7.08-.6,1.63-1.21,2.6-2.96,2.6-.22,0-.44-.01-.66-.05v-1.19Z"/>
      </g>
    </g>
    <g>
      <path class="cls-1" d="M425.02,178.35h3.79l6.37,18.09h-3.82l-1.21-3.85h-6.53l-1.19,3.85h-3.72l6.3-18.09ZM424.49,189.79h4.78l-1.62-5.21c-.3-.96-.73-2.78-.73-2.78h-.05s-.46,1.82-.76,2.78l-1.62,5.21Z"/>
      <path class="cls-1" d="M439.75,185.54h.08c.78-1.47,1.67-2.23,3.19-2.23.38,0,.61.03.81.1v3.01h-.08c-2.25-.23-3.87.96-3.87,3.69v6.32h-3.44v-12.98h3.31v2.07Z"/>
      <path class="cls-1" d="M445.31,178.35h3.44v3.09h-3.44v-3.09ZM445.31,183.46h3.44v12.98h-3.44v-12.98Z"/>
      <polygon class="cls-1" points="450.55 193.81 457.23 186.24 457.23 186.17 451.31 186.17 451.31 183.46 461.22 183.46 461.22 186.22 454.7 193.61 454.7 193.68 461.55 193.68 461.55 196.44 450.55 196.44 450.55 193.81"/>
      <path class="cls-1" d="M462.23,189.96c0-3.87,2.76-6.86,6.78-6.86s6.78,2.99,6.78,6.86-2.76,6.86-6.78,6.86-6.78-2.99-6.78-6.86M472.3,189.96c0-2.53-1.19-4.25-3.29-4.25s-3.29,1.72-3.29,4.25,1.16,4.22,3.29,4.22,3.29-1.69,3.29-4.22"/>
      <path class="cls-1" d="M480.75,185.23h.08c.89-1.39,2.07-2.12,3.85-2.12,2.68,0,4.48,2.02,4.48,4.86v8.47h-3.44v-7.97c0-1.39-.81-2.38-2.25-2.38-1.52,0-2.63,1.21-2.63,2.98v7.36h-3.44v-12.98h3.36v1.77Z"/>
      <path class="cls-1" d="M499.04,195h-.05c-.66.99-1.59,1.75-3.82,1.75-2.66,0-4.53-1.39-4.53-3.97,0-2.86,2.33-3.77,5.21-4.17,2.15-.3,3.14-.48,3.14-1.47s-.73-1.54-2.18-1.54c-1.62,0-2.4.58-2.5,1.82h-3.06c.1-2.28,1.8-4.28,5.59-4.28s5.46,1.75,5.46,4.78v6.6c0,.99.15,1.57.46,1.8v.13h-3.31c-.2-.25-.33-.86-.41-1.44M499.07,191.86v-1.95c-.61.35-1.54.56-2.4.76-1.8.4-2.68.81-2.68,2.02s.81,1.64,2.02,1.64c1.97,0,3.06-1.21,3.06-2.48"/>
    </g>
  </g>
</svg>