<svg width="94" height="117" viewBox="0 0 94 117" fill="none" xmlns="http://www.w3.org/2000/svg">
<path d="M76.4986 73.5888C76.4986 73.5888 64.7049 92.5213 44.3932 84.2597L69.1714 73.5888H76.4986Z" fill="#48322C"/>
<path d="M92.156 39.5935C92.156 39.5935 102.087 78.5026 66.0537 80.0034C66.0537 80.0034 69.9718 57.5373 70.1743 57.2311C70.3769 56.9249 92.1609 39.5935 92.1609 39.5935H92.156Z" fill="#48322C"/>
<path d="M69.5963 76.8212C72.5953 81.8103 75.3573 86.9399 78.0302 92.1198C79.0925 94.1777 76.0243 96.0047 74.962 93.9418C72.289 88.7669 69.532 83.6323 66.528 78.6431C65.3323 76.6555 68.4055 74.8386 69.5963 76.8212Z" fill="#472F43"/>
<path d="M55.1493 72.9664C56.7106 79.5617 57.7284 86.2623 58.2225 93.0283C58.3905 95.3472 54.8381 95.3371 54.6651 93.0283C54.1908 86.5836 53.2076 80.2142 51.7155 73.9301C51.1819 71.6714 54.6059 70.7078 55.1444 72.9714L55.1493 72.9664Z" fill="#472F43"/>
<path d="M57.7037 94.3082C55.4902 96.6421 52.9259 98.5645 50.1146 100.095C48.0988 101.195 46.3003 98.0776 48.3211 96.9784C50.8804 95.583 53.168 93.8815 55.1888 91.7534C56.7798 90.0769 59.2946 92.6317 57.7037 94.3082Z" fill="#472F43"/>
<path d="M58.4795 93.4649C58.8599 94.7348 59.2453 96.0448 59.1564 97.39C59.0724 98.6699 58.682 99.8946 58.4795 101.154C58.104 103.443 54.675 102.469 55.0505 100.196C55.2037 99.2521 55.5199 98.3186 55.6039 97.3699C55.6929 96.356 55.3371 95.3823 55.0505 94.4286C54.3885 92.2001 57.8174 91.2465 58.4795 93.47V93.4649Z" fill="#472F43"/>
<path d="M57.521 91.2866C60.0408 92.2604 62.4173 93.48 64.5715 95.1414C65.3423 95.7337 65.7227 96.6923 65.2089 97.6109C64.779 98.3838 63.5389 98.8456 62.778 98.2583C60.8758 96.7977 58.8056 95.6333 56.5773 94.77C54.4577 93.9518 55.3766 90.4584 57.521 91.2866Z" fill="#472F43"/>
<path d="M78.8109 94.1225C77.9117 96.853 76.3405 99.2221 74.1369 101.039C73.3859 101.656 72.3582 101.772 71.622 101.039C70.9896 100.412 70.876 99.0966 71.622 98.4842C73.3513 97.0588 74.6705 95.3271 75.382 93.1638C76.1033 90.9704 79.5372 91.909 78.8109 94.1225Z" fill="#472F43"/>
<path d="M78.055 92.5665C79.5422 94.3182 81.0392 96.0549 82.7734 97.5657C83.5047 98.1981 83.4157 99.4679 82.7734 100.12C82.0521 100.853 80.9898 100.758 80.2586 100.12C78.5243 98.6147 77.0273 96.878 75.5401 95.1213C74.9126 94.3835 74.8237 93.2943 75.5401 92.5665C76.1824 91.914 77.4275 91.8236 78.055 92.5665Z" fill="#472F43"/>
<path d="M78.4749 91.5928C81.7506 92.1399 85.0264 92.6619 88.312 93.1236C90.57 93.4398 89.6065 96.9232 87.3683 96.607C84.0827 96.1452 80.802 95.6282 77.5312 95.0761C75.2782 94.6997 76.2367 91.2163 78.4749 91.5928Z" fill="#472F43"/>
<path d="M64.9025 12.8109C64.9025 12.8109 60.688 5.46779 55.263 5.16161C55.263 5.16161 53.1532 8.22335 49.2401 6.38631C45.327 4.54927 48.9387 -0.344484 54.0574 0.267862C59.1761 0.880209 64.5962 5.77396 67.6101 12.8109H64.8976H64.9025Z" fill="#472F43"/>
<path d="M59.354 39.6186C59.354 39.6186 62.6001 27.8535 57.516 21.1027C54.3934 16.9568 42.4564 16.2089 66.8542 10.3966C77.7684 7.79668 92.4525 20.7965 92.1511 40.0754C92.1511 40.0754 83.1737 32.2905 77.131 29.8412C77.131 29.8412 69.29 37.1743 59.354 39.6186Z" fill="#48322C"/>
<path d="M92.156 39.5935L76.1922 27.3566C76.1922 27.3566 66.5527 35.6183 59.9271 38.3688C53.3015 41.1244 38.2172 52.7489 24.0766 75.998C9.94091 99.2521 0 115.163 0 115.163L7.52979 117L40.0551 83.3462C40.0551 83.3462 87.0373 90.7997 92.156 39.5935Z" fill="#8D874E"/>
<path d="M44.3883 84.2648C44.3883 84.2648 66.6763 89.1585 79.3247 65.2971C91.9732 41.4357 78.722 29.8061 68.786 37.4554C58.8451 45.1047 46.7994 50.6108 38.9682 71.1094C31.137 91.6079 7.64841 117 7.64841 117H12.1643L44.3883 84.2648Z" fill="#E5A770"/>
<path d="M74.6952 47.9807C74.8484 48.076 75.0806 48.0309 75.3128 47.8401C76.6518 46.7259 77.6202 46.3143 78.1933 46.6104C78.2081 46.6205 78.2279 46.6305 78.2427 46.6405C79.1666 47.2077 78.8554 49.5517 78.8504 49.5768C78.7911 50.0185 79.0283 50.2745 79.3791 50.149C79.7348 50.0235 80.0708 49.5617 80.135 49.12C80.1548 48.9845 80.5896 45.8073 79.0876 45.0243C78.1735 44.5475 76.8 45.0595 75.0065 46.5552C74.6557 46.8463 74.4383 47.3733 74.5223 47.7297C74.5519 47.8502 74.6112 47.9355 74.6903 47.9857L74.6952 47.9807Z" fill="#472F43"/>
<path d="M67.8719 44.5576C68.0251 44.6529 68.2573 44.6078 68.4895 44.417C69.8236 43.3028 70.7969 42.8912 71.37 43.1873C71.3848 43.1974 71.4046 43.2074 71.4194 43.2174C72.3434 43.7846 72.0321 46.1286 72.0272 46.1537C71.9679 46.5954 72.205 46.8514 72.5558 46.7259C72.9116 46.6004 73.2475 46.1386 73.3118 45.6969C73.3315 45.5614 73.7614 42.3842 72.2643 41.6012C71.3503 41.1244 69.9767 41.6364 68.1832 43.1321C67.8324 43.4232 67.615 43.9502 67.699 44.3066C67.7287 44.4271 67.7879 44.5124 67.867 44.5626L67.8719 44.5576Z" fill="#472F43"/>
<path d="M61.0486 41.1344C61.2018 41.2298 61.434 41.1846 61.6662 40.9939C63.0052 39.8796 63.9736 39.468 64.5467 39.7642C64.5615 39.7742 64.5813 39.7842 64.5961 39.7943C65.5201 40.3614 65.2088 42.7054 65.2039 42.7305C65.1446 43.1722 65.3817 43.4282 65.7325 43.3027C66.0883 43.1772 66.4242 42.7155 66.4885 42.2738C66.5082 42.1383 66.943 38.9611 65.441 38.1781C64.527 37.7013 63.1534 38.2132 61.3599 39.7089C61.0091 40.0001 60.7917 40.5271 60.8757 40.8834C60.9054 41.0039 60.9646 41.0892 61.0437 41.1394L61.0486 41.1344Z" fill="#472F43"/>
<path d="M68.7317 58.2651C68.8848 58.3605 69.117 58.3153 69.3493 58.1245C70.6882 57.0103 71.6566 56.5987 72.2297 56.8948C72.2446 56.9049 72.2643 56.9149 72.2791 56.925C73.2031 57.4921 72.8918 59.8361 72.8869 59.8612C72.8276 60.3029 73.0647 60.5589 73.4155 60.4334C73.7713 60.3079 74.1072 59.8461 74.1715 59.4045C74.1912 59.2689 74.6211 56.0918 73.124 55.3088C72.21 54.8319 70.8364 55.3439 69.0429 56.8396C68.6921 57.1307 68.4747 57.6578 68.5587 58.0141C68.5884 58.1346 68.6477 58.2199 68.7267 58.2701L68.7317 58.2651Z" fill="#472F43"/>
<path d="M61.9084 54.8419C62.0615 54.9373 62.2938 54.8921 62.526 54.7014C63.86 53.5871 64.8333 53.1755 65.4065 53.4717C66.3946 53.9836 66.0685 56.4129 66.0636 56.438C66.0043 56.8797 66.2415 57.1357 66.5923 57.0102C66.948 56.8848 67.284 56.423 67.3482 55.9813C67.368 55.8458 67.8028 52.6736 66.3008 51.8856C65.3867 51.4088 64.0132 51.9207 62.2196 53.4165C61.8688 53.7076 61.6515 54.2346 61.7354 54.591C61.7651 54.7114 61.8244 54.7968 61.9034 54.8469L61.9084 54.8419Z" fill="#472F43"/>
<path d="M55.0851 51.4188C55.2383 51.5142 55.4705 51.469 55.7027 51.2783C57.0417 50.164 58.0101 49.7524 58.5832 50.0486C58.598 50.0586 58.6178 50.0687 58.6326 50.0787C59.5565 50.6459 59.2453 52.9899 59.2403 53.015C59.181 53.4566 59.4182 53.7126 59.769 53.5871C60.1247 53.4617 60.4607 52.9999 60.5249 52.5582C60.5447 52.4227 60.9795 49.2505 59.4775 48.4625C58.5634 47.9857 57.1899 48.4976 55.3964 49.9934C55.0456 50.2845 54.8282 50.8115 54.9122 51.1679C54.9418 51.2883 55.0011 51.3737 55.0802 51.4239L55.0851 51.4188Z" fill="#472F43"/>
<path d="M68.5735 51.8305C68.7267 51.9258 68.9589 51.8806 69.1911 51.6899C70.5301 50.5756 71.4985 50.1641 72.0716 50.4602C72.0864 50.4702 72.1062 50.4803 72.121 50.4903C73.045 51.0575 72.7337 53.4015 72.7288 53.4266C72.6695 53.8683 72.9066 54.1242 73.2574 53.9988C73.6132 53.8733 73.9491 53.4115 74.0134 52.9698C74.0331 52.8343 74.4679 49.6571 72.9659 48.8741C72.0519 48.3973 70.6783 48.9093 68.8848 50.405C68.534 50.6961 68.3166 51.2231 68.4006 51.5795C68.4303 51.7 68.4895 51.7853 68.5686 51.8355L68.5735 51.8305Z" fill="#472F43"/>
<path d="M61.7503 48.4073C61.9035 48.5027 62.1357 48.4575 62.3679 48.2668C63.7069 47.1525 64.6753 46.7409 65.2484 47.037C65.2632 47.0471 65.283 47.0571 65.2978 47.0672C66.2217 47.6343 65.9105 49.9783 65.9055 50.0034C65.8462 50.4451 66.0834 50.7011 66.4342 50.5756C66.7899 50.4501 67.1259 49.9884 67.1901 49.5467C67.2099 49.4111 67.6397 46.234 66.1427 45.451C65.2286 44.9741 63.8551 45.4861 62.0616 46.9818C61.7108 47.273 61.4934 47.8 61.5774 48.1563C61.607 48.2768 61.6663 48.3621 61.7454 48.4123L61.7503 48.4073Z" fill="#472F43"/>
<path d="M54.927 44.9792C55.0802 45.0745 55.3124 45.0294 55.5446 44.8386C56.8786 43.7244 57.852 43.3128 58.4251 43.6089C59.4132 44.1209 59.0872 46.5502 59.0822 46.5753C59.0229 47.017 59.2601 47.273 59.6109 47.1475C59.9666 47.022 60.3026 46.5602 60.3668 46.1185C60.3866 45.983 60.8164 42.8058 59.3194 42.0228C58.4053 41.546 57.0318 42.058 55.2383 43.5537C54.8875 43.8448 54.6701 44.3718 54.7541 44.7282C54.7837 44.8487 54.843 44.934 54.9221 44.9842L54.927 44.9792Z" fill="#472F43"/>
<path d="M68.2277 66.3209C68.3808 66.4163 68.6131 66.3711 68.8453 66.1804C70.1842 65.0661 71.1526 64.6545 71.7258 64.9507C71.7406 64.9607 71.7604 64.9707 71.7752 64.9808C72.6991 65.5479 72.3878 67.8919 72.3829 67.917C72.3236 68.3587 72.5608 68.6147 72.9116 68.4892C73.2673 68.3637 73.6033 67.902 73.6675 67.4603C73.6873 67.3247 74.1171 64.1476 72.6201 63.3646C71.706 62.8877 70.3325 63.3997 68.5389 64.8954C68.1882 65.1866 67.9708 65.7136 68.0548 66.0699C68.0844 66.1904 68.1437 66.2757 68.2227 66.3259L68.2277 66.3209Z" fill="#472F43"/>
<path d="M61.4044 62.8978C61.5576 62.9932 61.7898 62.948 62.022 62.7573C63.3561 61.643 64.3294 61.2314 64.9025 61.5276C65.8907 62.0395 65.5646 64.4688 65.5597 64.4939C65.5004 64.9356 65.7375 65.1916 66.0883 65.0661C66.4441 64.9406 66.78 64.4789 66.8443 64.0372C66.864 63.9017 67.2988 60.7295 65.7968 59.9415C64.8828 59.4647 63.5092 59.9766 61.7157 61.4723C61.3649 61.7635 61.1475 62.2905 61.2315 62.6468C61.2612 62.7673 61.3204 62.8526 61.3995 62.9028L61.4044 62.8978Z" fill="#472F43"/>
<path d="M54.5811 59.4697C54.7343 59.565 54.9665 59.5199 55.1987 59.3291C56.5377 58.2149 57.5061 57.8033 58.0792 58.0994C58.0941 58.1095 58.1138 58.1195 58.1286 58.1295C59.0526 58.6967 58.7413 61.0407 58.7364 61.0658C58.6771 61.5075 58.9142 61.7635 59.265 61.638C59.6208 61.5125 59.9567 61.0507 60.021 60.609C60.0407 60.4735 60.4755 57.3014 58.9735 56.5133C58.0595 56.0365 56.6859 56.5485 54.8924 58.0442C54.5416 58.3353 54.3242 58.8623 54.4082 59.2187C54.4379 59.3392 54.4971 59.4245 54.5762 59.4747L54.5811 59.4697Z" fill="#472F43"/>
<path d="M47.7578 56.0466C47.911 56.142 48.1432 56.0968 48.3754 55.9061C49.7144 54.7918 50.6828 54.3803 51.2559 54.6764C51.2707 54.6864 51.2905 54.6965 51.3053 54.7065C52.2293 55.2737 51.918 57.6177 51.9131 57.6428C51.8538 58.0845 52.0909 58.3404 52.4417 58.215C52.7975 58.0895 53.1334 57.6277 53.1977 57.186C53.2174 57.0505 53.6473 53.8733 52.1502 53.0903C51.2362 52.6135 49.8626 53.1254 48.0691 54.6212C47.7183 54.9123 47.5009 55.4393 47.5849 55.7957C47.6145 55.9161 47.6738 56.0015 47.7529 56.0517L47.7578 56.0466Z" fill="#472F43"/>
<path d="M62.2641 76.6053C62.4173 76.7007 62.6495 76.6555 62.8817 76.4648C64.2207 75.3505 65.1891 74.9389 65.7622 75.235C65.777 75.2451 65.7968 75.2551 65.8116 75.2652C66.7356 75.8323 66.4243 78.1763 66.4193 78.2014C66.36 78.6431 66.5972 78.8991 66.948 78.7736C67.3037 78.6481 67.6397 78.1864 67.7039 77.7447C67.7237 77.6091 68.1536 74.432 66.6565 73.649C65.7425 73.1721 64.3689 73.6841 62.5754 75.1798C62.2246 75.471 62.0072 75.998 62.0912 76.3543C62.1208 76.4748 62.1801 76.5601 62.2592 76.6103L62.2641 76.6053Z" fill="#472F43"/>
<path d="M55.4408 73.1772C55.594 73.2726 55.8262 73.2274 56.0584 73.0367C57.3974 71.9224 58.3658 71.5108 58.9389 71.807C59.9172 72.3139 59.601 74.7482 59.596 74.7733C59.5367 75.215 59.7739 75.471 60.1247 75.3455C60.4804 75.22 60.8164 74.7583 60.8806 74.3166C60.9004 74.1811 61.3352 71.0089 59.8332 70.2209C58.9191 69.7441 57.5456 70.256 55.7521 71.7517C55.4013 72.0429 55.1839 72.5699 55.2679 72.9262C55.2975 73.0467 55.3568 73.132 55.4359 73.1822L55.4408 73.1772Z" fill="#472F43"/>
<path d="M48.6176 69.7542C48.7707 69.8495 49.003 69.8044 49.2352 69.6136C50.5692 68.4994 51.5425 68.0878 52.1157 68.3839C53.0989 68.8909 52.7777 71.3252 52.7728 71.3503C52.7135 71.792 52.9507 72.0479 53.3015 71.9225C53.6572 71.797 53.9932 71.3352 54.0574 70.8935C54.0772 70.758 54.507 67.5808 53.01 66.7978C52.0959 66.321 50.7224 66.833 48.9288 68.3287C48.578 68.6198 48.3607 69.1468 48.4446 69.5032C48.4743 69.6237 48.5336 69.709 48.6126 69.7592L48.6176 69.7542Z" fill="#472F43"/>
<path d="M41.7943 66.331C41.9475 66.4263 42.1797 66.3812 42.4119 66.1904C43.7509 65.0762 44.7193 64.6646 45.2924 64.9607C45.3072 64.9708 45.327 64.9808 45.3418 64.9908C46.2657 65.558 45.9545 67.902 45.9495 67.9271C45.8902 68.3688 46.1274 68.6248 46.4782 68.4993C46.8339 68.3738 47.1699 67.912 47.2341 67.4703C47.2539 67.3348 47.6887 64.1576 46.1867 63.3746C45.2726 62.8978 43.8991 63.4098 42.1056 64.9055C41.7548 65.1966 41.5374 65.7236 41.6214 66.08C41.651 66.2005 41.7103 66.2858 41.7894 66.336L41.7943 66.331Z" fill="#472F43"/>
<path d="M62.1011 70.1657C62.2542 70.261 62.4864 70.2159 62.7187 70.0251C64.0576 68.9109 65.026 68.4993 65.5992 68.7954C65.614 68.8054 65.6337 68.8155 65.6486 68.8255C66.5725 69.3927 66.2612 71.7367 66.2563 71.7618C66.197 72.2035 66.4342 72.4595 66.785 72.334C67.1407 72.2085 67.4767 71.7467 67.5409 71.305C67.5607 71.1695 67.9955 67.9974 66.4934 67.2093C65.5794 66.7325 64.2058 67.2445 62.4123 68.7402C62.0615 69.0313 61.8441 69.5583 61.9281 69.9147C61.9578 70.0352 62.0171 70.1205 62.0961 70.1707L62.1011 70.1657Z" fill="#472F43"/>
<path d="M55.2778 66.7425C55.4309 66.8379 55.6631 66.7927 55.8954 66.602C57.2343 65.4877 58.2027 65.0761 58.7759 65.3723C58.7907 65.3823 58.8104 65.3924 58.8253 65.4024C59.7492 65.9696 59.4379 68.3135 59.433 68.3386C59.3737 68.7803 59.6109 69.0363 59.9616 68.9108C60.3174 68.7854 60.6534 68.3236 60.7176 67.8819C60.7374 67.7464 61.1672 64.5692 59.6701 63.7862C58.7561 63.3094 57.3825 63.8213 55.589 65.3171C55.2382 65.6082 55.0208 66.1352 55.1048 66.4916C55.1345 66.612 55.1938 66.6974 55.2728 66.7475L55.2778 66.7425Z" fill="#472F43"/>
<path d="M48.4545 63.3194C48.6077 63.4148 48.8399 63.3696 49.0721 63.1789C50.4111 62.0646 51.3795 61.653 51.9526 61.9492C51.9674 61.9592 51.9872 61.9692 52.002 61.9793C52.926 62.5464 52.6147 64.8904 52.6097 64.9155C52.5505 65.3572 52.7876 65.6132 53.1384 65.4877C53.4941 65.3622 53.8301 64.9005 53.8944 64.4588C53.9141 64.3233 54.3489 61.1511 52.8469 60.3631C51.9328 59.8863 50.5593 60.3982 48.7658 61.8939C48.415 62.1851 48.1976 62.7121 48.2816 63.0684C48.3112 63.1889 48.3705 63.2742 48.4496 63.3244L48.4545 63.3194Z" fill="#472F43"/>
<path d="M90.9554 30.2878L63.7908 11.1445C63.7908 11.1445 71.4491 6.67235 80.6291 14.2263C89.8091 21.7802 90.9505 30.2878 90.9505 30.2878H90.9554Z" fill="#95441E"/>
<path d="M57.5407 12.8109C57.5407 12.8109 51.8044 13.89 47.5899 17.6996C47.5899 17.6996 56.4142 19.2104 57.5209 21.1076L57.5407 12.8109Z" fill="#8D874E"/>
</svg>
