<?xml version="1.0" encoding="UTF-8"?>
<svg id="Layer_2" data-name="Layer 2" xmlns="http://www.w3.org/2000/svg" viewBox="0 0 339.83 95.93">
  <defs>
    <style>
      .cls-1 {
        fill: #543831;
      }

      .cls-2 {
        fill: #54344d;
      }

      .cls-3 {
        fill: #a74810;
      }

      .cls-4 {
        fill: #84587b;
      }

      .cls-5 {
        fill: #ffb27a;
      }

      .cls-6 {
        fill: #979350;
      }
    </style>
  </defs>
  <g id="Layer_1-2" data-name="Layer 1">
    <g>
      <path class="cls-2" d="M310.61,9.45c-7.9.7-13.42,4.97-16.91,8.15l-.34.36-.77-.7c-2.93-2.38-6.01-4.02-6.49-3.98-.38.03-.47.04-5.14,10.18l-.05.12v.13c.04.29.21.38.63.59.74.38,2.72,1.39,4.32,3.05l.15.16c-7.95,13.76-12.26,31.72-11.01,45.88.52,5.87,2.19,10.25,4.97,13.02,2.02,2.01,4.62,3.09,7.4,3.09.32,0,.64-.01.96-.04,3.5-.31,8.59-3.01,12.37-9.65,4.42-7.75,6.1-19.22,4.87-33.15-.98-11.1-3.77-16.72-4.68-18.57-.06-.12-.12-.24-.16-.33.77-1.05,5.24-5.87,11.05-6.38,1.46-.13,14.36-.74,15.96,17.34,1.84,20.77-14.46,37.52-23.65,38.33-.01,0-.03,0-.08-.01-.09-.02-.22-.05-.39-.04l-.99.09-.05,11.36c.02.26.2.55.63.59.17.02.39,0,.74-.03,9.92-.88,19.61-7.28,26.59-17.56,6.82-10.05,10.15-22.33,9.15-33.69-1.86-21.05-16.36-29.43-29.05-28.3ZM288.09,76.82c-.06.05-.11.1-.15.15-.74-1.55-.91-3.46-1.01-4.63-1.13-12.8,4.01-27.15,5.74-31.21.28,1.36.69,3.7.96,6.68,1.33,15.08-1.93,25.61-5.54,29.01Z"/>
      <path class="cls-1" d="M155.87,11.7c-7.87,0-15.92,3.41-22.08,9.34-6.47,6.23-10.03,14.35-10.03,22.87v.41c0,1.59.11,3.57.94,6.17l.21.38c-.82,1.65-2.79,5.89-2.79,11.91,0,7.23,2.39,13.35,6.91,17.68,4.08,3.91,9.59,6.06,15.51,6.06,9.13,0,17.28-4.8,24.21-14.27l6.66-11.89c.04-.1.08-.22.13-.33,1.01-2.6,4.07-10.51,4.07-20.31,0-26.68-19.78-28.03-23.75-28.03ZM144.65,74.43h-.2c-1.69,0-10.12-.57-10.12-11.75,0-.18,0-.34,0-.47,4.88,3.51,11.3,6.16,19.09,7.88.33.07.62.13.87.19-1.45,1.28-5.37,4.14-9.65,4.14ZM162.78,58.69c-.16.32-.29.58-.38.74-2.01-.17-15.11-2.26-22.17-7.96-.27-.18-.43-.3-.51-.37.95-1.12,5.79-5.42,13.94-6.48.46,0,.87-.08.87-.8,0-.21-.14-1.97-.36-4.82-.19-2.41-.4-5.14-.46-6.02l-.03-.48-.48.02c-5.12.23-10.57,2.01-16.21,5.28,1.34-3.43,7.13-13.89,18.89-13.89,10.51,0,11.65,10.86,11.65,15.52,0,6.23-1.77,13.43-4.74,19.26Z"/>
      <path class="cls-5" d="M263.52,59.25c-.34,0-.59.25-1.53,1.19-2.71,2.72-9.92,9.93-20.3,9.93h-.61c-3.5,0-11.65-1.34-11.65-13.79,0-.94.1-2.01.18-2.57.14.04.3.09.45.14,1.76.57,5.9,1.9,11.94,1.9,11.15,0,18.27-4.26,22.28-7.84,4.94-4.4,7.89-10.31,7.89-15.81,0-6.96-4.99-17.32-18.75-17.32-16.79,0-27.78,13.98-30.92,18.57-.79-.69-2.74-2.63-4.2-4.41l-.34-.42-.38.38c-.22.22-2.39,2.07-4.48,3.87q-5.45,4.67-5.45,4.95c0,.48,2.92,3.43,3.51,4.02,2.57,2.57,4.19,3.81,5.06,4.47.25.19.49.37.6.48-.03.13-.08.36-.13.58-.32,1.34-1.08,4.49-1.08,9.12v.41c0,2.26.3,8.15,3.11,13.93,3.8,7.83,10.51,12.23,19.95,13.07.47.11,1.17.11,2.22.11,20.1,0,32.29-15.23,32.41-15.39l.28-.35-9.85-9.21h-.19ZM234.65,40.64c4.73-6.79,12.58-11.72,18.67-11.72,4.47,0,4.81,2.59,4.81,3.39,0,3.4-5.15,8.78-13.56,9.82-.57.1-1.9.1-2.88.1-3,0-5.94-.84-7.22-1.29l.18-.29Z"/>
      <path class="cls-6" d="M213.49,82.57c-3.42,0-9.16-1.08-9.16-8.33V26.03h12.48v-12.04h-12.48V0l-13.63.13v13.86h-11.55v12.04h11.55v49.13c0,12.33,6.82,19.13,19.21,19.13,2.19,0,4.44-.28,6.69-.85l.37-.09v-11.12l-.58.11c-.88.16-1.86.24-2.91.24Z"/>
      <path class="cls-3" d="M63.23,39.73c0,16.63,11.22,27.85,27.85,27.85s27.85-11.22,27.85-27.85-11.12-27.85-27.85-27.85-27.85,11.12-27.85,27.85ZM105.16,39.73c0,7.04-4.49,14.18-13.57,14.18s-12.95-7.14-12.95-14.18,4.28-14.28,12.95-14.28,13.57,7.14,13.57,14.28Z"/>
      <path class="cls-4" d="M83.64,82.06c-19.48,0-28.15-6.22-40.19-20.91,9.49-3.57,15.4-12.24,15.4-23.87,0-15.3-10.3-25.5-25.6-25.5H0v79.56h15.5v-28.46h11.93c17.54,24.17,30.7,32.74,55.69,33.05,12.24-.2,22.82-1.17,38.73-12.49l-7.96-11.32c-14.69,10.4-22.92,9.94-30.27,9.94ZM32.95,49.12H15.5v-23.56h17.44c7.04,0,11.83,4.69,11.83,11.73s-4.79,11.83-11.83,11.83Z"/>
    </g>
  </g>
</svg>