<?xml version="1.0" encoding="UTF-8"?>
<svg id="Layer_1" xmlns="http://www.w3.org/2000/svg" version="1.1" viewBox="0 0 312 29">
  <!-- Generator: Adobe Illustrator 29.5.0, SVG Export Plug-In . SVG Version: 2.1.0 Build 137)  -->
  <defs>
    <style>
      .st0 {
        fill: #faac78;
      }
    </style>
  </defs>
  <path class="st0" d="M268.1,28.6c-11.1,0-20-1.5-28.3-3.7-3-.8-5.9-1.7-8.9-2.5-14.7-4-20.5-4.2-37.5.7-4.1,1.2-7.6,2.7-11.8,3.9-4.8,1.3-8.8,1.1-13-.4-3.1-1.1-6.3-2.2-9.5-3.3-5.3-1.8-10.7-1.7-16,0-4,1.3-7.9,2.6-11.8,3.9-6.1,2.1-10.6,2-16.2-.4-5.1-2.1-9.7-4.5-16.1-5.9-8.3-1.9-13.5-1.6-20.7,1.1-4.8,1.8-9.7,3.6-15.2,5-3.8,1-7.2.9-10.5-.5-4.1-1.6-8.4-3.1-12.6-4.6-5.5-2-9.2-2.1-15-.1-4.2,1.4-8.9,2.5-13.7,3.4-6.4,1.1-11-.2-11.4-3.1C-.9,14.4,18.5,2.9,34.9,1.3c10.3-1,19.3.4,27.7,3,6.5,2,12.1,4.5,18.7,6.4,3.9,1.1,7,1,10.5-.1,4.1-1.3,7.6-3,11.3-4.5,2.3-.9,4.7-1.9,7.3-2.6,6.5-1.8,10.5-1.6,16,.8,3.7,1.6,7.2,3.4,10.5,5.2,4.2,2.2,8.5,2.8,14.2,1.2,3.3-.9,6.2-2,9.1-3.1,8.6-3.2,13.4-3.4,22.2-.4,13.5,4.5,20.3,4.5,33.9.1,3.8-1.2,7.7-2.5,11.7-3.5,6.1-1.5,12-1.3,17.5.7,5.6,2.1,11.5,4.1,17.7,5.8,6.7,1.9,13.2,1.9,19.6-.1,7.3-2.3,14.3-4.8,19.6-8,.9-.6,2-1.1,3.2-1.5,3.2-1,5.8-.4,6.2,1.3,0,.2,0,.3,0,.5-4.9,8.5-8.7,17.2-25,23.3-5.8,2.2-12.5,3.1-18.8,3h0Z"/>
</svg>