<svg width="311" height="42" viewBox="0 0 311 42" fill="none" xmlns="http://www.w3.org/2000/svg">
<path d="M267.246 41.0913C256.224 41.107 247.326 38.9951 239.002 35.702C236.036 34.5287 233.156 33.2537 230.177 32.0883C215.567 26.3704 209.745 25.9793 192.816 33.0895C188.74 34.8025 185.249 37.0083 181.062 38.6744C176.278 40.5829 172.25 40.2309 168.137 38.0799C165.024 36.4529 161.875 34.8651 158.714 33.285C153.441 30.6568 148.071 30.7898 142.774 33.199C138.795 35.0059 134.926 36.9301 131.032 38.823C124.929 41.7953 120.499 41.6936 114.835 38.2911C109.758 35.2405 105.181 31.8302 98.8096 29.7495C90.5343 27.0509 85.3469 27.4264 78.1823 31.2748C73.3734 33.856 68.5522 36.4373 63.0719 38.4553C59.2516 39.8633 55.9439 39.7147 52.5752 37.7983C48.5352 35.4986 44.2144 33.4024 40.0401 31.2044C34.5477 28.3024 30.8616 28.1695 25.0518 31.0167C20.8409 33.0817 16.2272 34.6539 11.3694 35.8819C4.98593 37.5089 0.384457 35.5769 0.0304977 31.3843C-0.872709 20.6448 18.4608 4.17171 34.7674 1.80166C45.0566 0.307666 54.0276 2.31791 62.364 6.04899C68.8085 8.92747 74.423 12.4786 81.0262 15.2476C84.8709 16.8589 87.9955 16.7494 91.5351 15.099C95.6606 13.1826 99.0659 10.7734 102.825 8.60677C105.156 7.26139 107.5 5.8769 110.136 4.82093C116.581 2.24751 120.596 2.48999 126.064 5.90818C129.799 8.24695 133.205 10.8126 136.537 13.3938C140.699 16.6164 145.056 17.3517 150.683 15.1772C153.942 13.9179 156.883 12.2831 159.801 10.6952C168.332 6.03334 173.178 5.86907 181.88 10.0616C195.343 16.5539 202.08 16.5617 215.689 10.2181C219.485 8.44251 223.318 6.64345 227.395 5.17292C233.461 2.99059 239.393 3.29565 244.873 6.22889C250.5 9.24816 256.322 12.0797 262.522 14.6218C269.198 17.3517 275.667 17.3517 282.039 14.4263C289.289 11.102 296.246 7.55862 301.543 2.85763C302.446 2.05197 303.508 1.25413 304.765 0.698772C307.975 -0.724823 310.514 0.0886552 310.941 2.57604C310.978 2.79505 311.039 3.03754 310.966 3.24091C306.096 15.4666 302.324 28.0287 286.005 36.7814C280.22 39.8868 273.568 41.1774 267.246 41.0835V41.0913Z" fill="white"/>
</svg>
