<svg width="312" height="29" viewBox="0 0 312 29" fill="none" xmlns="http://www.w3.org/2000/svg">
<path d="M268.105 28.5679C257.048 28.5788 248.121 27.1105 239.77 24.8211C236.795 24.0054 233.905 23.119 230.918 22.3087C216.261 18.3335 210.42 18.0616 193.436 23.0048C189.347 24.1957 185.845 25.7293 181.645 26.8876C176.845 28.2145 172.804 27.9698 168.677 26.4743C165.555 25.3432 162.396 24.2392 159.225 23.1408C153.935 21.3136 148.547 21.406 143.233 23.0809C139.241 24.3371 135.36 25.6749 131.453 26.9909C125.331 29.0574 120.886 28.9867 115.205 26.6211C110.111 24.5003 105.519 22.1293 99.1273 20.6828C90.8254 18.8066 85.6214 19.0677 78.4337 21.7432C73.6093 23.5377 68.7726 25.3323 63.2747 26.7353C59.4421 27.7142 56.1238 27.6108 52.7442 26.2785C48.6912 24.6797 44.3566 23.2223 40.1689 21.6942C34.6587 19.6767 30.9608 19.5843 25.1323 21.5637C20.9079 22.9994 16.2794 24.0924 11.406 24.9462C5.00196 26.0773 0.385693 24.7341 0.0305957 21.8193C-0.875516 14.3529 18.5202 2.9003 34.8791 1.25257C45.2015 0.213899 54.2014 1.61148 62.5645 4.20544C69.0297 6.20664 74.6623 8.67552 81.2867 10.6006C85.1438 11.7208 88.2785 11.6447 91.8295 10.4973C95.9682 9.16494 99.3845 7.49003 103.156 5.98369C105.495 5.04834 107.846 4.0858 110.49 3.35166C116.956 1.56254 120.984 1.73112 126.47 4.10755C130.217 5.73353 133.633 7.51721 136.976 9.31177C141.151 11.5523 145.523 12.0634 151.168 10.5517C154.437 9.67612 157.388 8.53957 160.314 7.43565C168.873 4.19456 173.735 4.08036 182.465 6.99516C195.971 11.5087 202.73 11.5142 216.383 7.10392C220.191 5.86948 224.036 4.61872 228.126 3.59637C234.211 2.07915 240.162 2.29124 245.66 4.33051C251.305 6.4296 257.146 8.39818 263.366 10.1655C270.064 12.0634 276.554 12.0634 282.945 10.0296C290.219 7.71842 297.198 5.25498 302.513 1.98671C303.419 1.42659 304.484 0.87191 305.745 0.485808C308.966 -0.503919 311.512 0.0616358 311.941 1.79094C311.978 1.9432 312.039 2.11179 311.966 2.25318C307.08 10.7529 303.296 19.4864 286.925 25.5716C281.121 27.7305 274.448 28.6278 268.105 28.5625V28.5679Z" fill="#FAAC78"/>
</svg>
