<?xml version="1.0" encoding="UTF-8"?>
<svg id="Layer_1" xmlns="http://www.w3.org/2000/svg" version="1.1" viewBox="0 0 124 16">
  <!-- Generator: Adobe Illustrator 29.5.1, SVG Export Plug-In . SVG Version: 2.1.0 Build 141)  -->
  <defs>
    <style>
      .st0 {
        fill: #faac78;
      }
    </style>
  </defs>
  <path class="st0" d="M106.6,16c-4.4,0-7.9-.8-11.3-2.1-1.2-.5-2.3-1-3.5-1.4-5.8-2.2-8.1-2.4-14.9.4-1.6.7-3,1.5-4.7,2.2-1.9.7-3.5.6-5.2-.2-1.2-.6-2.5-1.3-3.8-1.9-2.1-1-4.2-1-6.4,0-1.6.7-3.1,1.5-4.7,2.2-2.4,1.2-4.2,1.1-6.5-.2-2-1.2-3.8-2.5-6.4-3.3-3.3-1.1-5.4-.9-8.2.6-1.9,1-3.8,2-6,2.8-1.5.5-2.8.5-4.2-.3-1.6-.9-3.3-1.7-5-2.6-2.2-1.1-3.7-1.2-6,0-1.7.8-3.5,1.4-5.5,1.9C2,14.6.2,13.9,0,12.2-.3,8,7.4,1.6,13.9.7c4.1-.6,7.7.2,11,1.7,2.6,1.1,4.8,2.5,7.4,3.6,1.5.6,2.8.6,4.2,0,1.6-.7,3-1.7,4.5-2.5.9-.5,1.9-1.1,2.9-1.5,2.6-1,4.2-.9,6.4.4,1.5.9,2.8,1.9,4.2,2.9,1.7,1.3,3.4,1.5,5.6.7,1.3-.5,2.5-1.1,3.6-1.7,3.4-1.8,5.3-1.9,8.8-.2,5.4,2.5,8.1,2.5,13.5,0,1.5-.7,3-1.4,4.7-2,2.4-.8,4.8-.7,7,.4,2.2,1.2,4.6,2.3,7,3.3,2.7,1.1,5.2,1.1,7.8,0,2.9-1.3,5.7-2.7,7.8-4.5.4-.3.8-.6,1.3-.8,1.3-.6,2.3-.2,2.5.7,0,0,0,.2,0,.3-1.9,4.8-3.4,9.7-10,13.1-2.3,1.2-5,1.7-7.5,1.7h0Z"/>
</svg>