<svg width="255" height="38" viewBox="0 0 255 38" fill="none" xmlns="http://www.w3.org/2000/svg">
<path d="M219.124 37.1961C210.087 37.2102 202.792 35.2981 195.966 32.3167C193.534 31.2544 191.173 30.1001 188.731 29.0449C176.751 23.8681 171.978 23.514 158.097 29.9514C154.754 31.5023 151.892 33.4994 148.46 35.0078C144.537 36.7358 141.234 36.4171 137.861 34.4696C135.309 32.9966 132.727 31.5589 130.135 30.1284C125.812 27.7489 121.409 27.8693 117.065 30.0505C113.803 31.6864 110.63 33.4285 107.438 35.1423C102.434 37.8334 98.8013 37.7414 94.1577 34.6608C89.9945 31.8989 86.2416 28.8112 81.0175 26.9274C74.2323 24.4842 69.979 24.8241 64.1045 28.3084C60.1614 30.6454 56.2084 32.9824 51.7149 34.8095C48.5825 36.0842 45.8704 35.9497 43.1083 34.2146C39.7957 32.1326 36.253 30.2346 32.8303 28.2447C28.3269 25.6173 25.3045 25.4969 20.5408 28.0747C17.0882 29.9443 13.3053 31.3677 9.32218 32.4796C4.08814 33.9526 0.31523 32.2034 0.0250061 28.4075C-0.715566 18.6913 15.1367 3.77698 28.507 1.63119C36.9435 0.278561 44.2992 2.09859 51.1345 5.47661C56.4185 8.08272 61.0221 11.2979 66.4363 13.8048C69.5887 15.2637 72.1507 15.1645 75.0529 13.6703C78.4355 11.9352 81.2277 9.75403 84.3101 7.79237C86.2215 6.5743 88.143 5.32082 90.3047 4.36477C95.5888 2.03485 98.8813 2.25439 103.365 5.34914C106.427 7.4666 109.219 9.78944 111.951 12.1264C115.364 15.0441 118.937 15.7098 123.55 13.7411C126.222 12.6009 128.634 11.1208 131.026 9.68321C138.022 5.46245 141.995 5.31373 149.13 9.10958C160.169 14.9875 165.693 14.9946 176.852 9.25122C179.964 7.64365 183.106 6.01483 186.449 4.68345C191.423 2.70762 196.287 2.98381 200.78 5.6395C205.394 8.37308 210.167 10.9367 215.251 13.2383C220.725 15.7098 226.029 15.7098 231.254 13.0612C237.198 10.0515 242.902 6.8434 247.246 2.58723C247.986 1.85781 248.857 1.13546 249.888 0.632652C252.52 -0.656239 254.602 0.0802685 254.952 2.33229C254.982 2.53058 255.032 2.75012 254.972 2.93424C250.979 14.0031 247.886 25.3765 234.506 33.3011C229.762 36.1125 224.308 37.2811 219.124 37.1961Z" fill="#512A45"/>
</svg>
