<svg width="160" height="256" viewBox="0 0 160 256" fill="none" xmlns="http://www.w3.org/2000/svg">
<g clip-path="url(#clip0_200_421)">
<path d="M8.36992 43.8701C6.16992 42.4301 4.95992 41.6401 3.61992 40.7701C2.74992 46.2701 3.54992 47.1701 7.63992 45.8401C9.00992 45.3901 11.0099 44.3401 11.7499 44.8801C18.7499 49.9801 24.6199 47.2201 30.3199 42.4701C36.5799 47.1001 42.7299 52.1801 50.2599 45.0001C57.0999 50.5201 64.0999 53.5801 72.1699 48.6001C83.7399 56.9001 86.7399 56.1501 96.5399 42.6701C103.8 46.4501 112.3 46.5401 119.32 51.8701C124.06 55.4601 130.33 52.7401 134.59 48.0501C136.22 46.2601 137.64 44.2801 139.15 42.3901C139.12 43.1501 139.09 43.9101 139.06 44.6701C144.19 46.0001 149.3 47.3901 154.45 48.5901C155.45 48.8201 157.04 47.7301 157.65 48.1901C166.07 54.5801 172.44 49.9501 178.33 44.2201C186.83 50.0401 189.74 49.9001 198.76 43.5001C209.36 52.1301 212.89 52.3201 223.1 44.7901C230.24 50.2401 232.88 50.2101 239.93 44.9201C241.1 44.0401 242.66 43.3101 244.09 43.2201C250.37 42.8301 253.61 38.6901 255.04 33.4701C257.34 25.1101 255.31 17.2101 250.44 10.1001C249.98 9.44014 248.75 9.31014 247.39 8.72014C254.38 29.0501 254.29 31.1801 245.92 36.7601C246.24 27.7401 248.23 18.1701 237 13.0201C232.98 22.6501 232.77 31.4901 238.69 42.3401C233.91 42.1101 230.41 42.6101 227.59 41.4501C226.59 41.0401 226.95 36.5501 227.24 33.9901C227.65 30.3801 228.93 26.8701 229.21 23.2601C229.61 18.2301 230.61 12.8601 224.98 7.89014C223.48 11.0001 221.52 13.4001 221.22 15.9901C220.43 22.7401 220.17 29.5601 220.08 36.3601C220 42.4501 216.28 45.8601 210.48 44.0401C205.17 42.3701 200.47 40.1901 201.11 32.7701C201.67 26.3101 199.73 20.2601 192.45 15.9501C192.09 19.0901 191.35 21.4701 191.65 23.7201C192.19 27.7701 193.53 31.7001 194.16 35.7401C194.42 37.4201 194.08 40.5501 193.33 40.7801C190.71 41.5801 187.45 42.2301 185.1 41.2801C183.64 40.6901 182.44 36.9901 182.73 34.9101C184.31 23.5801 180.97 16.0001 172.13 13.1301C168.6 20.3901 171.52 27.2101 173.23 34.1901C173.84 36.6701 174.15 40.7301 172.79 41.8401C170.32 43.8501 166.48 44.1901 163.36 45.1801C164.16 36.0701 165.2 29.3501 165.1 22.6501C165.06 20.0401 162.44 17.4601 160.99 14.8701C159.04 17.2901 156.62 19.4701 155.29 22.1901C154.26 24.3101 154.42 27.0901 154.34 29.5801C154.21 33.8001 154.3 38.0201 154.3 42.2401C146.37 42.4301 141.2 37.7301 141.2 30.1501C141.2 24.1901 140 18.9201 134.48 14.9201C128.12 21.0501 131.21 27.3701 134.3 32.9201C136.61 37.0601 135.58 39.6601 132.96 42.5501C128.5 47.4801 123.4 47.4501 117.31 42.3201C117.8 41.4001 118.63 40.4701 118.77 39.4401C119.67 33.0101 120.84 26.5701 120.97 20.1201C121.01 18.0101 118.23 15.8401 116.74 13.6901C114.89 15.7501 112.87 17.7001 111.26 19.9301C110.52 20.9501 110.46 22.5201 110.3 23.8701C109.67 28.9501 109.12 34.0501 108.55 39.1301C100.59 38.1501 98.9899 36.4601 97.9499 29.3601C97.5999 26.9701 96.9599 23.9501 95.3099 22.6101C93.3999 21.0601 89.7599 19.9001 87.7899 20.7301C86.2999 21.3601 85.1799 25.7301 85.8199 27.8401C86.8299 31.1801 89.1999 34.2401 91.4799 37.0201C94.5399 40.7501 92.0799 43.6901 89.5999 44.9401C86.8499 46.3201 82.8299 46.7001 79.8999 45.8001C76.4299 44.7301 78.2199 41.8201 79.2399 39.0701C81.1199 34.0401 82.9299 28.6901 83.1099 23.4201C83.2199 20.3401 80.6999 15.1101 78.3299 14.4301C73.3599 13.0001 69.4899 16.9701 68.7399 21.8201C67.9199 27.1301 68.4599 32.6601 68.5999 38.0901C68.6499 40.0301 69.2499 41.9601 69.5899 43.8601C58.2199 46.5501 54.7199 42.8501 55.8299 32.4301C56.4099 26.9301 54.2499 21.0101 52.6399 15.4901C52.2399 14.1101 48.8099 12.4001 47.3699 12.8301C45.3999 13.4201 43.2399 15.6501 42.5599 17.6501C41.8199 19.8301 42.3599 22.6301 42.9199 25.0301C44.2799 30.8901 45.9699 36.6701 47.5499 42.5201C37.7599 43.7101 35.0099 40.2401 37.0399 31.8801C37.8499 28.5201 36.7399 23.1901 34.3999 21.0701C32.5799 19.4201 26.2899 20.0801 24.2299 22.0501C22.3199 23.8801 22.7599 28.9101 23.3399 32.3401C23.7899 35.0301 26.0299 37.4101 28.5899 41.8601C23.7999 41.8601 20.1499 42.5901 16.9499 41.6901C12.2299 40.3701 14.9599 36.3201 14.6499 33.1801C14.0699 27.2901 13.3199 21.0401 10.7999 15.8201C8.61992 11.3001 1.34992 11.8101 0.349917 15.8601C-0.320083 18.5801 -0.0600832 21.8701 0.819917 24.5701C2.82992 30.7101 5.47992 36.6301 8.33992 43.8501L8.36992 43.8701ZM238.78 19.9701C244.47 23.9001 244.89 27.5601 240.98 35.0401C240.25 35.0301 239.51 35.0101 238.78 35.0001V19.9701ZM224.71 15.9201C225.5 16.0401 226.28 16.1601 227.07 16.2801C226.23 21.9701 225.39 27.6701 224.55 33.3601C223.71 33.1601 222.86 32.9601 222.02 32.7701C222.92 27.1501 223.82 21.5401 224.72 15.9201H224.71ZM158.59 21.6801C159.77 21.6801 160.96 21.6901 162.14 21.7001C161.84 26.9301 161.54 32.1701 161.24 37.4001C160.36 37.3701 159.47 37.3501 158.59 37.3201V21.6801ZM114.13 21.0501C119.35 26.1401 119.31 31.1501 114.13 37.5401V21.0501ZM74.2299 18.8701C81.5499 23.4701 81.7599 29.5501 74.2299 37.6201V18.8701ZM26.7899 25.0501C33.1099 24.9901 34.6299 28.3501 31.3399 35.5001C29.6599 31.6501 28.2799 28.4901 26.7899 25.0501ZM6.79992 17.2801C10.7799 21.9401 12.6399 27.2901 11.4299 33.6701C10.7299 33.8501 10.0299 34.0301 9.33992 34.2101C7.72992 28.8001 6.12992 23.4001 4.51992 17.9901C5.27992 17.7501 6.03992 17.5101 6.79992 17.2801Z" fill="#F1F0E2"/>
<path d="M247.4 57.2602C254.39 77.5902 254.3 79.7202 245.93 85.3002C246.25 76.2802 248.24 66.7102 237.01 61.5602C232.99 71.1902 232.78 80.0302 238.7 90.8802C233.92 90.6502 230.42 91.1502 227.6 89.9902C226.6 89.5802 226.96 85.0902 227.25 82.5302C227.66 78.9202 228.94 75.4102 229.22 71.8002C229.62 66.7702 230.62 61.4002 224.99 56.4302C223.49 59.5402 221.53 61.9402 221.23 64.5302C220.44 71.2802 220.18 78.1002 220.09 84.9002C220.01 90.9902 216.29 94.4002 210.49 92.5802C205.18 90.9102 200.48 88.7302 201.12 81.3102C201.68 74.8502 199.74 68.8002 192.46 64.4902C192.1 67.6302 191.36 70.0102 191.66 72.2602C192.2 76.3002 193.54 80.2402 194.17 84.2802C194.43 85.9602 194.09 89.0902 193.34 89.3202C190.72 90.1202 187.46 90.7702 185.11 89.8202C183.65 89.2302 182.45 85.5302 182.74 83.4502C184.32 72.1202 180.98 64.5402 172.14 61.6702C168.61 68.9302 171.53 75.7502 173.24 82.7302C173.85 85.2102 174.16 89.2702 172.8 90.3802C170.33 92.3902 166.49 92.7302 163.37 93.7202C164.17 84.6102 165.21 77.8902 165.11 71.1902C165.07 68.5802 162.45 66.0002 161 63.4102C159.05 65.8302 156.63 68.0102 155.3 70.7302C154.27 72.8502 154.43 75.6302 154.35 78.1202C154.22 82.3402 154.31 86.5602 154.31 90.7802C146.38 90.9702 141.21 86.2702 141.21 78.6902C141.21 72.7302 140.01 67.4602 134.49 63.4602C128.13 69.5902 131.22 75.9102 134.31 81.4602C136.62 85.5902 135.59 88.2002 132.97 91.0902C128.51 96.0202 123.41 95.9902 117.32 90.8602C117.81 89.9402 118.64 89.0102 118.78 87.9802C119.68 81.5502 120.85 75.1102 120.98 68.6602C121.02 66.5502 118.24 64.3702 116.75 62.2302C114.9 64.2902 112.88 66.2402 111.27 68.4702C110.53 69.4902 110.47 71.0602 110.31 72.4102C109.68 77.4902 109.13 82.5902 108.56 87.6702C100.6 86.6902 98.9999 85.0002 97.9599 77.9002C97.6099 75.5102 96.9699 72.4902 95.3199 71.1502C93.4099 69.6002 89.7699 68.4402 87.7999 69.2702C86.3099 69.9002 85.1899 74.2702 85.8299 76.3802C86.8399 79.7202 89.2099 82.7802 91.4899 85.5602C94.5499 89.2902 92.0899 92.2302 89.6099 93.4702C86.8599 94.8502 82.8399 95.2302 79.9099 94.3302C76.4399 93.2602 78.2299 90.3502 79.2499 87.6002C81.1299 82.5702 82.9399 77.2202 83.1199 71.9502C83.2299 68.8702 80.7099 63.6402 78.3399 62.9602C73.3699 61.5302 69.4999 65.5002 68.7499 70.3502C67.9299 75.6602 68.4699 81.1902 68.6099 86.6202C68.6599 88.5602 69.2599 90.4902 69.5999 92.3902C58.2299 95.0802 54.7299 91.3802 55.8399 80.9602C56.4199 75.4602 54.2599 69.5402 52.6499 64.0202C52.2499 62.6402 48.8199 60.9302 47.3799 61.3602C45.4099 61.9502 43.2499 64.1802 42.5699 66.1802C41.8299 68.3602 42.3699 71.1602 42.9299 73.5602C44.2899 79.4202 45.9799 85.2002 47.5599 91.0502C37.7699 92.2402 35.0199 88.7702 37.0499 80.4102C37.8599 77.0502 36.7499 71.7202 34.4099 69.6002C32.5899 67.9502 26.2999 68.6102 24.2399 70.5802C22.3299 72.4102 22.7699 77.4402 23.3499 80.8702C23.7999 83.5602 26.0399 85.9402 28.5999 90.3902C23.8099 90.3902 20.1599 91.1202 16.9599 90.2202C12.2399 88.9002 14.9699 84.8502 14.6599 81.7102C14.0799 75.8202 13.3299 69.5702 10.8099 64.3502C8.62993 59.8302 1.35993 60.3402 0.359927 64.3902C-0.310073 67.1102 -0.0500735 70.4002 0.829926 73.1002C2.83993 79.2402 5.48993 85.1602 8.34993 92.3802C6.14993 90.9402 4.93993 90.1502 3.59993 89.2802C2.72993 94.7802 3.52993 95.6802 7.61993 94.3502C8.98993 93.9002 10.9899 92.8502 11.7299 93.3902C18.7299 98.4902 24.5999 95.7302 30.2999 90.9802C36.5599 95.6102 42.7099 100.69 50.2399 93.5102C57.0799 99.0302 64.0799 102.09 72.1499 97.1102C83.7199 105.41 86.7199 104.66 96.5199 91.1802C103.78 94.9602 112.28 95.0502 119.3 100.38C124.04 103.97 130.31 101.25 134.57 96.5602C136.2 94.7702 137.62 92.7902 139.13 90.9002C139.1 91.6602 139.07 92.4202 139.04 93.1802C144.17 94.5102 149.28 95.9002 154.43 97.1002C155.43 97.3302 157.02 96.2402 157.63 96.7002C166.05 103.09 172.42 98.4602 178.31 92.7302C186.81 98.5502 189.72 98.4102 198.74 92.0102C209.34 100.64 212.87 100.83 223.08 93.3002C230.22 98.7502 232.86 98.7202 239.91 93.4302C241.08 92.5502 242.64 91.8202 244.07 91.7302C250.35 91.3402 253.59 87.2002 255.02 81.9802C257.32 73.6202 255.29 65.7202 250.42 58.6102C249.96 57.9502 248.73 57.8202 247.37 57.2302L247.4 57.2602ZM11.4299 82.2002C10.7299 82.3802 10.0299 82.5602 9.33993 82.7402C7.72993 77.3302 6.12993 71.9302 4.51993 66.5202C5.27993 66.2802 6.03993 66.0402 6.79993 65.8102C10.7799 70.4702 12.6399 75.8202 11.4299 82.2002ZM31.3399 84.0302C29.6599 80.1802 28.2799 77.0102 26.7899 73.5802C33.1099 73.5202 34.6299 76.8802 31.3399 84.0302ZM74.2299 67.3902C81.5499 71.9902 81.7599 78.0702 74.2299 86.1402V67.3902ZM114.13 69.5802C119.35 74.6702 119.31 79.6802 114.13 86.0702V69.5802ZM161.24 85.9202C160.36 85.8902 159.47 85.8702 158.59 85.8402V70.2002C159.77 70.2002 160.96 70.2102 162.14 70.2202C161.84 75.4502 161.54 80.6902 161.24 85.9202ZM222.02 81.2902C222.92 75.6702 223.82 70.0602 224.72 64.4402C225.51 64.5602 226.29 64.6802 227.08 64.8002C226.24 70.4902 225.4 76.1902 224.56 81.8802C223.72 81.6802 222.87 81.4802 222.03 81.2902H222.02ZM240.98 83.5602C240.25 83.5502 239.51 83.5302 238.78 83.5202V68.4902C244.47 72.4202 244.89 76.0802 240.98 83.5602Z" fill="#F1F0E2"/>
<path d="M247.4 105.79C254.39 126.12 254.3 128.25 245.93 133.83C246.25 124.81 248.24 115.24 237.01 110.09C232.99 119.72 232.78 128.56 238.7 139.41C233.92 139.18 230.42 139.68 227.6 138.52C226.6 138.11 226.96 133.62 227.25 131.06C227.66 127.45 228.94 123.94 229.22 120.33C229.62 115.3 230.62 109.93 224.99 104.96C223.49 108.07 221.53 110.47 221.23 113.06C220.44 119.81 220.18 126.63 220.09 133.43C220.01 139.52 216.29 142.93 210.49 141.11C205.18 139.44 200.48 137.26 201.12 129.84C201.68 123.38 199.74 117.33 192.46 113.02C192.1 116.16 191.36 118.54 191.66 120.79C192.2 124.83 193.54 128.77 194.17 132.81C194.43 134.49 194.09 137.62 193.34 137.85C190.72 138.65 187.46 139.3 185.11 138.35C183.65 137.76 182.45 134.06 182.74 131.98C184.32 120.65 180.98 113.07 172.14 110.2C168.61 117.46 171.53 124.28 173.24 131.26C173.85 133.74 174.16 137.8 172.8 138.91C170.33 140.92 166.49 141.26 163.37 142.25C164.17 133.14 165.21 126.42 165.11 119.72C165.07 117.11 162.45 114.53 161 111.94C159.05 114.36 156.63 116.54 155.3 119.26C154.27 121.38 154.43 124.16 154.35 126.65C154.22 130.87 154.31 135.09 154.31 139.31C146.38 139.5 141.21 134.8 141.21 127.22C141.21 121.26 140.01 115.99 134.49 111.99C128.13 118.12 131.22 124.44 134.31 129.99C136.62 134.13 135.59 136.73 132.97 139.62C128.51 144.55 123.41 144.52 117.32 139.39C117.81 138.47 118.64 137.54 118.78 136.51C119.68 130.08 120.85 123.64 120.98 117.19C121.02 115.08 118.24 112.91 116.75 110.76C114.9 112.82 112.88 114.77 111.27 117C110.53 118.02 110.47 119.59 110.31 120.94C109.68 126.02 109.13 131.12 108.56 136.2C100.6 135.22 98.9999 133.53 97.9599 126.43C97.6099 124.04 96.9699 121.02 95.3199 119.68C93.4099 118.13 89.7699 116.97 87.7999 117.8C86.3099 118.43 85.1899 122.79 85.8299 124.91C86.8399 128.25 89.2099 131.31 91.4899 134.09C94.5499 137.82 92.0899 140.76 89.6099 142.01C86.8599 143.39 82.8399 143.77 79.9099 142.87C76.4399 141.8 78.2299 138.89 79.2499 136.14C81.1299 131.11 82.9399 125.76 83.1199 120.49C83.2299 117.41 80.7099 112.18 78.3399 111.5C73.3699 110.07 69.4999 114.04 68.7499 118.89C67.9299 124.2 68.4699 129.73 68.6099 135.16C68.6599 137.1 69.2599 139.03 69.5999 140.93C58.2299 143.62 54.7299 139.92 55.8399 129.5C56.4199 124 54.2599 118.08 52.6499 112.56C52.2499 111.18 48.8199 109.47 47.3799 109.9C45.4099 110.49 43.2499 112.72 42.5699 114.72C41.8299 116.9 42.3699 119.7 42.9299 122.1C44.2899 127.96 45.9799 133.74 47.5599 139.59C37.7699 140.78 35.0199 137.31 37.0499 128.95C37.8599 125.59 36.7499 120.26 34.4099 118.14C32.5899 116.49 26.2999 117.15 24.2399 119.12C22.3299 120.95 22.7699 125.98 23.3499 129.41C23.7999 132.1 26.0399 134.48 28.5999 138.93C23.8099 138.93 20.1599 139.66 16.9599 138.76C12.2399 137.44 14.9699 133.39 14.6599 130.25C14.0799 124.36 13.3299 118.11 10.8099 112.89C8.62993 108.37 1.35993 108.88 0.359927 112.93C-0.310073 115.65 -0.0500735 118.94 0.829926 121.64C2.83993 127.78 5.48993 133.7 8.34993 140.92C6.14993 139.48 4.93993 138.69 3.59993 137.82C2.72993 143.32 3.52993 144.22 7.61993 142.89C8.98993 142.44 10.9899 141.39 11.7299 141.93C18.7299 147.03 24.5999 144.27 30.2999 139.52C36.5599 144.15 42.7099 149.23 50.2399 142.05C57.0799 147.57 64.0799 150.63 72.1499 145.65C83.7199 153.94 86.7199 153.2 96.5199 139.72C103.78 143.5 112.28 143.59 119.3 148.92C124.04 152.51 130.31 149.79 134.57 145.1C136.2 143.31 137.62 141.33 139.13 139.44C139.1 140.2 139.07 140.96 139.04 141.72C144.17 143.05 149.28 144.44 154.43 145.64C155.43 145.87 157.02 144.78 157.63 145.24C166.05 151.63 172.42 147 178.31 141.27C186.81 147.09 189.72 146.95 198.74 140.55C209.34 149.18 212.87 149.37 223.08 141.84C230.22 147.29 232.86 147.26 239.91 141.97C241.08 141.09 242.64 140.36 244.07 140.27C250.35 139.88 253.59 135.74 255.02 130.52C257.32 122.16 255.29 114.26 250.42 107.15C249.96 106.49 248.73 106.36 247.37 105.77L247.4 105.79ZM11.4299 130.73C10.7299 130.91 10.0299 131.09 9.33993 131.27C7.72993 125.86 6.12993 120.46 4.51993 115.05C5.27993 114.81 6.03993 114.57 6.79993 114.34C10.7799 119 12.6399 124.35 11.4299 130.73ZM31.3399 132.56C29.6599 128.71 28.2799 125.55 26.7899 122.11C33.1099 122.05 34.6299 125.41 31.3399 132.56ZM74.2299 115.92C81.5499 120.52 81.7599 126.6 74.2299 134.67V115.92ZM114.13 118.1C119.35 123.19 119.31 128.2 114.13 134.59V118.1ZM161.24 134.45L158.59 134.37V118.73C159.77 118.73 160.96 118.74 162.14 118.75C161.84 123.98 161.54 129.22 161.24 134.45ZM222.02 129.82C222.92 124.2 223.82 118.59 224.72 112.97C225.51 113.09 226.29 113.21 227.08 113.33C226.24 119.02 225.4 124.72 224.56 130.41C223.72 130.21 222.87 130.01 222.03 129.82H222.02ZM240.98 132.09C240.25 132.08 239.51 132.06 238.78 132.05V117.02C244.47 120.95 244.89 124.61 240.98 132.09Z" fill="#F1F0E2"/>
<path d="M247.4 154.31C254.39 174.64 254.3 176.77 245.93 182.35C246.25 173.33 248.24 163.76 237.01 158.61C232.99 168.24 232.78 177.08 238.7 187.93C233.92 187.7 230.42 188.2 227.6 187.04C226.6 186.63 226.96 182.14 227.25 179.58C227.66 175.97 228.94 172.46 229.22 168.85C229.62 163.82 230.62 158.45 224.99 153.48C223.49 156.59 221.53 158.99 221.23 161.58C220.44 168.33 220.18 175.15 220.09 181.95C220.01 188.04 216.29 191.45 210.49 189.63C205.18 187.96 200.48 185.78 201.12 178.36C201.68 171.9 199.74 165.85 192.46 161.54C192.1 164.68 191.36 167.06 191.66 169.31C192.2 173.36 193.54 177.29 194.17 181.33C194.43 183.01 194.09 186.14 193.34 186.37C190.72 187.17 187.46 187.82 185.11 186.87C183.65 186.28 182.45 182.58 182.74 180.5C184.32 169.17 180.98 161.59 172.14 158.72C168.61 165.98 171.53 172.8 173.24 179.78C173.85 182.26 174.16 186.32 172.8 187.43C170.33 189.44 166.49 189.78 163.37 190.77C164.17 181.66 165.21 174.94 165.11 168.24C165.07 165.63 162.45 163.05 161 160.46C159.05 162.88 156.63 165.06 155.3 167.78C154.27 169.9 154.43 172.68 154.35 175.17C154.22 179.39 154.31 183.61 154.31 187.83C146.38 188.02 141.21 183.32 141.21 175.74C141.21 169.78 140.01 164.51 134.49 160.51C128.13 166.64 131.22 172.96 134.31 178.51C136.62 182.65 135.59 185.25 132.97 188.14C128.51 193.07 123.41 193.04 117.32 187.91C117.81 186.99 118.64 186.06 118.78 185.03C119.68 178.6 120.85 172.16 120.98 165.71C121.02 163.6 118.24 161.43 116.75 159.28C114.9 161.34 112.88 163.29 111.27 165.52C110.53 166.54 110.47 168.11 110.31 169.46C109.68 174.54 109.13 179.64 108.56 184.72C100.6 183.74 98.9999 182.05 97.9599 174.95C97.6099 172.56 96.9699 169.54 95.3199 168.2C93.4099 166.65 89.7699 165.49 87.7999 166.32C86.3099 166.95 85.1899 171.32 85.8299 173.43C86.8399 176.77 89.2099 179.83 91.4899 182.61C94.5499 186.34 92.0899 189.28 89.6099 190.53C86.8599 191.91 82.8399 192.29 79.9099 191.39C76.4399 190.32 78.2299 187.41 79.2499 184.66C81.1299 179.63 82.9399 174.28 83.1199 169.01C83.2299 165.93 80.7099 160.7 78.3399 160.02C73.3699 158.59 69.4999 162.56 68.7499 167.41C67.9299 172.72 68.4699 178.25 68.6099 183.68C68.6599 185.62 69.2599 187.55 69.5999 189.45C58.2299 192.14 54.7299 188.44 55.8399 178.02C56.4199 172.52 54.2599 166.6 52.6499 161.08C52.2499 159.7 48.8199 157.99 47.3799 158.42C45.4099 159.01 43.2499 161.24 42.5699 163.24C41.8299 165.42 42.3699 168.22 42.9299 170.62C44.2899 176.48 45.9799 182.26 47.5599 188.11C37.7699 189.3 35.0199 185.83 37.0499 177.47C37.8599 174.11 36.7499 168.78 34.4099 166.66C32.5899 165.01 26.2999 165.67 24.2399 167.64C22.3299 169.47 22.7699 174.5 23.3499 177.93C23.7999 180.62 26.0399 183 28.5999 187.45C23.8099 187.45 20.1599 188.18 16.9599 187.28C12.2399 185.96 14.9699 181.91 14.6599 178.77C14.0799 172.88 13.3299 166.63 10.8099 161.41C8.62993 156.89 1.35993 157.4 0.359927 161.45C-0.310073 164.17 -0.0500735 167.46 0.829926 170.16C2.83993 176.3 5.48993 182.22 8.34993 189.44C6.14993 188 4.93993 187.21 3.59993 186.34C2.72993 191.84 3.52993 192.74 7.61993 191.41C8.98993 190.96 10.9899 189.91 11.7299 190.45C18.7299 195.55 24.5999 192.79 30.2999 188.04C36.5599 192.67 42.7099 197.75 50.2399 190.57C57.0799 196.09 64.0799 199.15 72.1499 194.17C83.7199 202.47 86.7199 201.72 96.5199 188.24C103.78 192.02 112.28 192.11 119.3 197.44C124.04 201.03 130.31 198.31 134.57 193.62C136.2 191.83 137.62 189.85 139.13 187.96C139.1 188.72 139.07 189.48 139.04 190.24C144.17 191.57 149.28 192.96 154.43 194.16C155.43 194.39 157.02 193.3 157.63 193.76C166.05 200.15 172.42 195.52 178.31 189.79C186.81 195.61 189.72 195.47 198.74 189.07C209.34 197.7 212.87 197.89 223.08 190.36C230.22 195.81 232.86 195.78 239.91 190.49C241.08 189.61 242.64 188.88 244.07 188.79C250.35 188.4 253.59 184.26 255.02 179.04C257.32 170.68 255.29 162.78 250.42 155.67C249.96 155.01 248.73 154.88 247.37 154.29L247.4 154.31ZM11.4299 179.25C10.7299 179.43 10.0299 179.61 9.33993 179.79C7.72993 174.38 6.12993 168.98 4.51993 163.57C5.27993 163.33 6.03993 163.09 6.79993 162.86C10.7799 167.52 12.6399 172.87 11.4299 179.25ZM31.3399 181.08C29.6599 177.23 28.2799 174.07 26.7899 170.63C33.1099 170.57 34.6299 173.93 31.3399 181.08ZM74.2299 164.45C81.5499 169.05 81.7599 175.13 74.2299 183.2V164.45ZM114.13 166.63C119.35 171.72 119.31 176.73 114.13 183.12V166.63ZM161.24 182.97C160.36 182.94 159.47 182.92 158.59 182.89V167.25C159.77 167.25 160.96 167.26 162.14 167.27C161.84 172.5 161.54 177.74 161.24 182.97ZM222.02 178.35C222.92 172.73 223.82 167.12 224.72 161.5C225.51 161.62 226.29 161.74 227.08 161.86C226.24 167.55 225.4 173.25 224.56 178.94C223.72 178.74 222.87 178.54 222.03 178.35H222.02ZM240.98 180.62C240.25 180.61 239.51 180.59 238.78 180.58V165.55C244.47 169.48 244.89 173.14 240.98 180.62Z" fill="#F1F0E2"/>
<path d="M247.4 202.84C254.39 223.17 254.3 225.3 245.93 230.88C246.25 221.86 248.24 212.29 237.01 207.14C232.99 216.77 232.78 225.61 238.7 236.46C233.92 236.23 230.42 236.73 227.6 235.57C226.6 235.16 226.96 230.67 227.25 228.11C227.66 224.5 228.94 220.99 229.22 217.38C229.62 212.35 230.62 206.98 224.99 202.01C223.49 205.12 221.53 207.52 221.23 210.11C220.44 216.86 220.18 223.68 220.09 230.48C220.01 236.57 216.29 239.98 210.49 238.16C205.18 236.49 200.48 234.31 201.12 226.89C201.68 220.43 199.74 214.38 192.46 210.07C192.1 213.21 191.36 215.59 191.66 217.84C192.2 221.88 193.54 225.82 194.17 229.86C194.43 231.54 194.09 234.67 193.34 234.9C190.72 235.7 187.46 236.35 185.11 235.4C183.65 234.81 182.45 231.11 182.74 229.03C184.32 217.7 180.98 210.12 172.14 207.25C168.61 214.51 171.53 221.33 173.24 228.31C173.85 230.79 174.16 234.85 172.8 235.96C170.33 237.97 166.49 238.31 163.37 239.3C164.17 230.19 165.21 223.47 165.11 216.77C165.07 214.16 162.45 211.58 161 208.99C159.05 211.41 156.63 213.59 155.3 216.31C154.27 218.43 154.43 221.21 154.35 223.7C154.22 227.92 154.31 232.14 154.31 236.36C146.38 236.55 141.21 231.85 141.21 224.27C141.21 218.31 140.01 213.04 134.49 209.04C128.13 215.17 131.22 221.49 134.31 227.04C136.62 231.17 135.59 233.78 132.97 236.67C128.51 241.6 123.41 241.57 117.32 236.44C117.81 235.52 118.64 234.59 118.78 233.56C119.68 227.13 120.85 220.69 120.98 214.24C121.02 212.13 118.24 209.95 116.75 207.81C114.9 209.87 112.88 211.82 111.27 214.05C110.53 215.07 110.47 216.64 110.31 217.99C109.68 223.07 109.13 228.17 108.56 233.25C100.6 232.27 98.9999 230.58 97.9599 223.48C97.6099 221.09 96.9699 218.07 95.3199 216.73C93.4099 215.18 89.7699 214.02 87.7999 214.85C86.3099 215.48 85.1899 219.85 85.8299 221.96C86.8399 225.3 89.2099 228.36 91.4899 231.14C94.5499 234.87 92.0899 237.81 89.6099 239.05C86.8599 240.43 82.8399 240.81 79.9099 239.91C76.4399 238.84 78.2299 235.93 79.2499 233.18C81.1299 228.15 82.9399 222.8 83.1199 217.53C83.2299 214.45 80.7099 209.22 78.3399 208.54C73.3699 207.11 69.4999 211.08 68.7499 215.93C67.9299 221.24 68.4699 226.77 68.6099 232.2C68.6599 234.14 69.2599 236.07 69.5999 237.97C58.2299 240.66 54.7299 236.96 55.8399 226.54C56.4199 221.04 54.2599 215.12 52.6499 209.6C52.2499 208.22 48.8199 206.51 47.3799 206.94C45.4099 207.53 43.2499 209.76 42.5699 211.76C41.8299 213.94 42.3699 216.74 42.9299 219.14C44.2899 225 45.9799 230.78 47.5599 236.63C37.7699 237.82 35.0199 234.35 37.0499 225.99C37.8599 222.63 36.7499 217.3 34.4099 215.18C32.5899 213.53 26.2999 214.19 24.2399 216.16C22.3299 217.99 22.7699 223.02 23.3499 226.45C23.7999 229.14 26.0399 231.52 28.5999 235.97C23.8099 235.97 20.1599 236.7 16.9599 235.8C12.2399 234.48 14.9699 230.43 14.6599 227.29C14.0799 221.4 13.3299 215.15 10.8099 209.93C8.62993 205.41 1.35993 205.92 0.359927 209.97C-0.310073 212.69 -0.0500735 215.98 0.829926 218.68C2.83993 224.82 5.48993 230.74 8.34993 237.96C6.14993 236.52 4.93993 235.73 3.59993 234.86C2.72993 240.36 3.52993 241.26 7.61993 239.93C8.98993 239.48 10.9899 238.43 11.7299 238.97C18.7299 244.07 24.5999 241.31 30.2999 236.56C36.5599 241.19 42.7099 246.27 50.2399 239.09C57.0799 244.61 64.0799 247.67 72.1499 242.69C83.7199 250.99 86.7199 250.24 96.5199 236.76C103.78 240.54 112.28 240.63 119.3 245.96C124.04 249.55 130.31 246.83 134.57 242.14C136.2 240.35 137.62 238.37 139.13 236.48C139.1 237.24 139.07 238 139.04 238.76C144.17 240.09 149.28 241.48 154.43 242.68C155.43 242.91 157.02 241.82 157.63 242.28C166.05 248.67 172.42 244.04 178.31 238.31C186.81 244.13 189.72 243.99 198.74 237.59C209.34 246.22 212.87 246.41 223.08 238.88C230.22 244.33 232.86 244.3 239.91 239.01C241.08 238.13 242.64 237.4 244.07 237.31C250.35 236.92 253.59 232.78 255.02 227.56C257.32 219.2 255.29 211.3 250.42 204.19C249.96 203.53 248.73 203.4 247.37 202.81L247.4 202.84ZM11.4299 227.78C10.7299 227.96 10.0299 228.14 9.33993 228.32C7.72993 222.91 6.12993 217.51 4.51993 212.1C5.27993 211.86 6.03993 211.62 6.79993 211.39C10.7799 216.05 12.6399 221.4 11.4299 227.78ZM31.3399 229.61C29.6599 225.76 28.2799 222.59 26.7899 219.16C33.1099 219.1 34.6299 222.46 31.3399 229.61ZM74.2299 212.97C81.5499 217.57 81.7599 223.65 74.2299 231.72V212.97ZM114.13 215.16C119.35 220.25 119.31 225.26 114.13 231.65V215.16ZM161.24 231.5C160.36 231.47 159.47 231.45 158.59 231.42V215.78C159.77 215.78 160.96 215.79 162.14 215.8C161.84 221.03 161.54 226.27 161.24 231.5ZM222.02 226.87C222.92 221.25 223.82 215.64 224.72 210.02C225.51 210.14 226.29 210.26 227.08 210.38C226.24 216.07 225.4 221.77 224.56 227.46C223.72 227.26 222.87 227.06 222.03 226.87H222.02ZM240.98 229.14C240.25 229.13 239.51 229.11 238.78 229.1V214.07C244.47 218 244.89 221.66 240.98 229.14Z" fill="#F1F0E2"/>
</g>
<defs>
<clipPath id="clip0_200_421">
<rect width="251.423" height="256" fill="white"/>
</clipPath>
</defs>
</svg>
